<?xml version="1.0" standalone="no"?>
<!-- Generator: Adobe Fireworks 10, Export SVG Extension by Aaron Beall (http://fireworks.abeall.com) . Version: 0.6.1  -->
<!DOCTYPE svg PUBLIC "-//W3C//DTD SVG 1.1//EN" "http://www.w3.org/Graphics/SVG/1.1/DTD/svg11.dtd">
<svg id="Untitled-Page%201" viewBox="0 0 292 257" style="background-color:#ffffff00" version="1.1"
	xmlns="http://www.w3.org/2000/svg" xmlns:xlink="http://www.w3.org/1999/xlink" xml:space="preserve"
	x="0px" y="0px" width="292px" height="257px"
>
	<g id="Layer%201">
		<g>
			<path d="M 1.2753 10.5993 C 1.2753 4.6375 4.8617 1 10.7393 1 L 282.0353 1 C 287.9128 1 291.4996 4.6375 291.4996 10.5993 L 291.4996 246.4007 C 291.4996 252.3627 287.9128 256 282.0353 256 L 10.7393 256 C 4.8617 256 1.2753 252.3627 1.2753 246.4007 L 1.2753 10.5993 Z" stroke="#cacad0" stroke-width="1" fill="#ffffff"/>
		</g>
		<path id="Ellipse" d="M 24.2931 10 C 24.2931 8.3431 25.6373 7 27.2954 7 C 28.9536 7 30.2977 8.3431 30.2977 10 C 30.2977 11.6569 28.9536 13 27.2954 13 C 25.6373 13 24.2931 11.6569 24.2931 10 Z" fill="#dae0e6"/>
		<path id="Ellipse2" d="M 34.3009 10 C 34.3009 8.3431 35.645 7 37.3032 7 C 38.9613 7 40.3055 8.3431 40.3055 10 C 40.3055 11.6569 38.9613 13 37.3032 13 C 35.645 13 34.3009 11.6569 34.3009 10 Z" fill="#dae0e6"/>
		<path id="Ellipse3" d="M 44.3086 10 C 44.3086 8.3431 45.6528 7 47.3109 7 C 48.969 7 50.3132 8.3431 50.3132 10 C 50.3132 11.6569 48.969 13 47.3109 13 C 45.6528 13 44.3086 11.6569 44.3086 10 Z" fill="#dae0e6"/>
		<g>
			<path d="M 223 77.5 C 223 76.0338 224.582 75 226.8257 75 L 264.1743 75 C 266.418 75 268 76.0338 268 77.5 L 268 77.5 C 268 78.8807 266.418 80 264.1743 80 L 226.8257 80 C 224.582 80 223 78.8807 223 77.5 L 223 77.5 Z" fill="#a7b7c9"/>
		</g>
		<g opacity="0.251">
			<path d="M 66 93.2706 C 66 88.7855 66.969 88 72.5015 88 L 261.4977 88 C 267.0303 88 268 88.7855 268 93.2706 L 268 98.7295 C 268 103.2147 267.0303 104 261.4977 104 L 72.5015 104 C 66.969 104 66 103.2147 66 98.7295 L 66 93.2706 Z" fill="#a7b7c9"/>
		</g>
		<g>
			<path d="M 223 129.5 C 223 128.0338 224.582 127 226.8257 127 L 264.1743 127 C 266.418 127 268 128.0338 268 129.5 L 268 129.5 C 268 130.8807 266.418 132 264.1743 132 L 226.8257 132 C 224.582 132 223 130.8807 223 129.5 L 223 129.5 Z" fill="#a7b7c9"/>
		</g>
		<g opacity="0.251">
			<path d="M 66 146.2705 C 66 141.7854 66.969 141 72.5015 141 L 261.4977 141 C 267.0303 141 268 141.7854 268 146.2705 L 268 151.7294 C 268 156.2147 267.0303 157 261.4977 157 L 72.5015 157 C 66.969 157 66 156.2147 66 151.7294 L 66 146.2705 Z" fill="#a7b7c9"/>
		</g>
		<path id="Line" opacity="0.502" d="M 1.5004 19.5 L 291.7246 19.5 " stroke="#b9b9c8" stroke-width="1" fill="none"/>
		<g>
			<path d="M 173.4189 49 C 173.4189 46.2385 176.4558 44 180.2017 44 L 260.416 44 C 264.162 44 267.1987 46.2385 267.1987 49 L 267.1987 49 C 267.1987 51.7615 264.162 54 260.416 54 L 180.2017 54 C 176.4558 54 173.4189 51.7615 173.4189 49 L 173.4189 49 Z" fill="#8eb2fa"/>
		</g>
		<g>
			<path d="M 218 210.0834 C 218 208.5472 218.6378 208 220.4277 208 L 265.5724 208 C 267.3623 208 268 208.5472 268 210.0834 L 268 225.9166 C 268 227.4528 267.3623 228 265.5724 228 L 220.4277 228 C 218.6378 228 218 227.4528 218 225.9166 L 218 210.0834 Z" fill="#94cd67"/>
		</g>
		<g>
			<path d="M 252 181.0511 C 252 179.2325 253.6461 178 256.0748 178 L 263.9252 178 C 266.3539 178 268 179.2325 268 181.0511 L 268 189.9489 C 268 191.7675 266.3539 193 263.9252 193 L 256.0748 193 C 253.6461 193 252 191.7675 252 189.9489 L 252 181.0511 Z" fill="#8eb2fa"/>
		</g>
		<g id="ui-icon-check">
			<path d="M 259.3843 190 L 255.8021 186.4341 L 257.1055 184.8594 L 260.2307 187.6282 L 259.3843 190 Z" fill="#ffffff"/>
			<path d="M 257.8375 188.4905 L 262.2856 182 L 264 182.985 L 259.3843 190 L 257.8375 188.4905 Z" fill="#ffffff"/>
		</g>
		<path id="ui-icon-arrow-d" d="M 80 95.1106 L 79.001 94 L 76.5 96.778 L 74.0004 94 L 73 95.111 L 76.4994 99 L 77.4998 97.889 L 77.4998 97.8886 L 80 95.1106 Z" fill="#a7b7c9"/>
		<g>
			<path d="M 229 218.5 C 229 217.6203 230.6005 217 232.8701 217 L 254.1299 217 C 256.3995 217 258 217.6203 258 218.5 L 258 218.5 C 258 219.3284 256.3995 220 254.1299 220 L 232.8701 220 C 230.6005 220 229 219.3284 229 218.5 L 229 218.5 Z" fill="#ffffff"/>
		</g>
		<g opacity="0.749">
			<path d="M 174.965 185.5 C 174.965 184.4184 175.2626 184 176.0319 184 L 239.7986 184 C 240.5679 184 240.8655 184.4184 240.8655 185.5 L 240.8655 185.5 C 240.8655 186.3284 240.5679 187 239.7986 187 L 176.0319 187 C 175.2626 187 174.965 186.3284 174.965 185.5 L 174.965 185.5 Z" fill="#c8d2dd"/>
		</g>
	</g>
</svg>