<?xml version="1.0" standalone="no"?>
<!-- Generator: Adobe Fireworks 10, Export SVG Extension by Aaron Beall (http://fireworks.abeall.com) . Version: 0.6.1  -->
<!DOCTYPE svg PUBLIC "-//W3C//DTD SVG 1.1//EN" "http://www.w3.org/Graphics/SVG/1.1/DTD/svg11.dtd">
<svg id="Untitled-Page%201" viewBox="0 0 292 257" style="background-color:#ffffff00" version="1.1"
	xmlns="http://www.w3.org/2000/svg" xmlns:xlink="http://www.w3.org/1999/xlink" xml:space="preserve"
	x="0px" y="0px" width="292px" height="257px"
>
	<g id="Layer%201">
		<g>
			<path d="M 1.2753 10.5993 C 1.2753 4.6375 4.8617 1 10.7393 1 L 282.0353 1 C 287.9128 1 291.4996 4.6375 291.4996 10.5993 L 291.4996 246.4006 C 291.4996 252.3627 287.9128 256 282.0353 256 L 10.7393 256 C 4.8617 256 1.2753 252.3627 1.2753 246.4006 L 1.2753 10.5993 Z" stroke="#cacad0" stroke-width="1" fill="#ffffff"/>
		</g>
		<path id="Line" opacity="0.502" d="M 0.7758 20.5 L 291 20.5 " stroke="#b9b9c8" stroke-width="1" fill="none"/>
		<path id="Ellipse" d="M 24.2931 10 C 24.2931 8.3431 25.6373 7 27.2954 7 C 28.9536 7 30.2977 8.3431 30.2977 10 C 30.2977 11.6569 28.9536 13 27.2954 13 C 25.6373 13 24.2931 11.6569 24.2931 10 Z" fill="#dae0e6"/>
		<path id="Ellipse2" d="M 34.3009 10 C 34.3009 8.3431 35.645 7 37.3032 7 C 38.9613 7 40.3055 8.3431 40.3055 10 C 40.3055 11.6569 38.9613 13 37.3032 13 C 35.645 13 34.3009 11.6569 34.3009 10 Z" fill="#dae0e6"/>
		<path id="Ellipse3" d="M 44.3086 10 C 44.3086 8.3431 45.6528 7 47.3109 7 C 48.969 7 50.3132 8.3431 50.3132 10 C 50.3132 11.6569 48.969 13 47.3109 13 C 45.6528 13 44.3086 11.6569 44.3086 10 Z" fill="#dae0e6"/>
		<g opacity="0.749">
			<path d="M 27 138.5 C 27 137.4185 27.1996 137 27.7153 137 L 116.2847 137 C 116.8004 137 117 137.4185 117 138.5 L 117 138.5 C 117 139.3284 116.8004 140 116.2847 140 L 27.7153 140 C 27.1996 140 27 139.3284 27 138.5 L 27 138.5 Z" fill="#c8d2dd"/>
		</g>
		<g opacity="0.749">
			<path d="M 27 148.5 C 27 147.4185 27.1996 147 27.7153 147 L 116.2847 147 C 116.8004 147 117 147.4185 117 148.5 L 117 148.5 C 117 149.3284 116.8004 150 116.2847 150 L 27.7153 150 C 27.1996 150 27 149.3284 27 148.5 L 27 148.5 Z" fill="#c8d2dd"/>
		</g>
		<g opacity="0.749">
			<path d="M 27 158.5 C 27 157.4185 27.1996 157 27.7153 157 L 116.2847 157 C 116.8004 157 117 157.4185 117 158.5 L 117 158.5 C 117 159.3284 116.8004 160 116.2847 160 L 27.7153 160 C 27.1996 160 27 159.3284 27 158.5 L 27 158.5 Z" fill="#c8d2dd"/>
		</g>
		<g opacity="0.749">
			<path d="M 63.5854 168.5 C 63.5854 167.4185 63.7039 167 64.0099 167 L 116.5754 167 C 116.8816 167 117 167.4185 117 168.5 L 117 168.5 C 117 169.3284 116.8816 170 116.5754 170 L 64.0099 170 C 63.7039 170 63.5854 169.3284 63.5854 168.5 L 63.5854 168.5 Z" fill="#c8d2dd"/>
		</g>
		<g opacity="0.749">
			<path d="M 27 178.5 C 27 177.4185 27.1996 177 27.7153 177 L 116.2847 177 C 116.8004 177 117 177.4185 117 178.5 L 117 178.5 C 117 179.3284 116.8004 180 116.2847 180 L 27.7153 180 C 27.1996 180 27 179.3284 27 178.5 L 27 178.5 Z" fill="#c8d2dd"/>
		</g>
		<g opacity="0.749">
			<path d="M 63.5854 188.5 C 63.5854 187.4185 63.7039 187 64.0099 187 L 116.5754 187 C 116.8816 187 117 187.4185 117 188.5 L 117 188.5 C 117 189.3284 116.8816 190 116.5754 190 L 64.0099 190 C 63.7039 190 63.5854 189.3284 63.5854 188.5 L 63.5854 188.5 Z" fill="#c8d2dd"/>
		</g>
		<g opacity="0.251">
			<path d="M 27 93.2784 C 27 89.3252 28.3362 88 32.3225 88 L 112.677 88 C 116.6632 88 118 89.3252 118 93.2784 L 118 119.7216 C 118 123.6748 116.6632 125 112.677 125 L 32.3225 125 C 28.3362 125 27 123.6748 27 119.7216 L 27 93.2784 Z" fill="#a7b7c9"/>
		</g>
		<g>
			<path d="M 236.4851 96.585 C 236.4851 95.6554 237.4875 95 238.9094 95 L 262.5758 95 C 263.9976 95 265 95.6554 265 96.585 L 265 96.585 C 265 97.4603 263.9976 98.1699 262.5758 98.1699 L 238.9094 98.1699 C 237.4875 98.1699 236.4851 97.4603 236.4851 96.585 L 236.4851 96.585 Z" fill="#a7b7c9"/>
		</g>
		<g>
			<path d="M 88.4851 75.585 C 88.4851 74.6554 89.4875 74 90.9094 74 L 114.5758 74 C 115.9976 74 117 74.6554 117 75.585 L 117 75.585 C 117 76.4603 115.9976 77.1699 114.5758 77.1699 L 90.9094 77.1699 C 89.4875 77.1699 88.4851 76.4603 88.4851 75.585 L 88.4851 75.585 Z" fill="#a7b7c9"/>
		</g>
		<g opacity="0.251">
			<path d="M 137 106.5833 C 137 103.7397 137.614 103.2418 141.1198 103.2418 L 260.8796 103.2418 C 264.3855 103.2418 265 103.7397 265 106.5833 L 265 110.0442 C 265 112.8877 264.3855 113.3856 260.8796 113.3856 L 141.1198 113.3856 C 137.614 113.3856 137 112.8877 137 110.0442 L 137 106.5833 Z" fill="#a7b7c9"/>
		</g>
		<g>
			<path d="M 236.4851 129.5522 C 236.4851 128.6228 237.4875 127.9673 238.9094 127.9673 L 262.5758 127.9673 C 263.9976 127.9673 265 128.6228 265 129.5522 L 265 129.5522 C 265 130.4277 263.9976 131.1372 262.5758 131.1372 L 238.9094 131.1372 C 237.4875 131.1372 236.4851 130.4277 236.4851 129.5522 L 236.4851 129.5522 Z" fill="#a7b7c9"/>
		</g>
		<g opacity="0.251">
			<path d="M 137 140.1846 C 137 137.3411 137.614 136.8431 141.1198 136.8431 L 260.8796 136.8431 C 264.3855 136.8431 265 137.3411 265 140.1846 L 265 143.6455 C 265 146.489 264.3855 146.9869 260.8796 146.9869 L 141.1198 146.9869 C 137.614 146.9869 137 146.489 137 143.6455 L 137 140.1846 Z" fill="#a7b7c9"/>
		</g>
		<g>
			<path d="M 233.3169 180.6411 C 233.3169 179.6672 233.7209 179.3203 234.8552 179.3203 L 263.4617 179.3203 C 264.5959 179.3203 265 179.6672 265 180.6411 L 265 190.6792 C 265 191.6531 264.5959 192 263.4617 192 L 234.8552 192 C 233.7209 192 233.3169 191.6531 233.3169 190.6792 L 233.3169 180.6411 Z" fill="#94cd67"/>
		</g>
		<g>
			<path d="M 254.8613 162.235 C 254.8613 161.082 255.9045 160.3007 257.4435 160.3007 L 262.418 160.3007 C 263.9569 160.3007 265 161.082 265 162.235 L 265 167.8762 C 265 169.0291 263.9569 169.8105 262.418 169.8105 L 257.4435 169.8105 C 255.9045 169.8105 254.8613 169.0291 254.8613 167.8762 L 254.8613 162.235 Z" fill="#8eb2fa"/>
		</g>
		<g id="ui-icon-check">
			<path d="M 259.5405 167.9084 L 257.2706 165.6477 L 258.0966 164.6494 L 260.0769 166.4048 L 259.5405 167.9084 Z" fill="#ffffff"/>
			<path d="M 258.5604 166.9514 L 261.379 162.8367 L 262.4653 163.4611 L 259.5405 167.9084 L 258.5604 166.9514 Z" fill="#ffffff"/>
		</g>
		<path id="ui-icon-arrow-d" d="M 145.8713 107.7499 L 145.2383 107.0458 L 143.6534 108.807 L 142.0696 107.0458 L 141.4357 107.75 L 143.6531 110.2157 L 144.287 109.5114 L 144.287 109.5111 L 145.8713 107.7499 Z" fill="#a7b7c9"/>
		<g>
			<path d="M 240.2871 185.9771 C 240.2871 185.4194 241.3013 185.0261 242.7395 185.0261 L 256.2109 185.0261 C 257.6492 185.0261 258.6633 185.4194 258.6633 185.9771 L 258.6633 185.9771 C 258.6633 186.5023 257.6492 186.9281 256.2109 186.9281 L 242.7395 186.9281 C 241.3013 186.9281 240.2871 186.5023 240.2871 185.9771 L 240.2871 185.9771 Z" fill="#ffffff"/>
		</g>
		<g opacity="0.749">
			<path d="M 206.0471 165.0555 C 206.0471 164.3699 206.2357 164.1045 206.7231 164.1045 L 247.1299 164.1045 C 247.6172 164.1045 247.8059 164.3699 247.8059 165.0555 L 247.8059 165.0555 C 247.8059 165.5808 247.6172 166.0066 247.1299 166.0066 L 206.7231 166.0066 C 206.2357 166.0066 206.0471 165.5808 206.0471 165.0555 L 206.0471 165.0555 Z" fill="#c8d2dd"/>
		</g>
		<g>
			<path d="M 210.4189 77 C 210.4189 74.2385 213.4558 72 217.2017 72 L 258.0825 72 C 261.8286 72 264.8654 74.2385 264.8654 77 L 264.8654 77 C 264.8654 79.7615 261.8286 82 258.0825 82 L 217.2017 82 C 213.4558 82 210.4189 79.7615 210.4189 77.0001 L 210.4189 77 Z" fill="#8eb2fa"/>
		</g>
		<path id="mountain-range" d="M 75.9091 96 L 70.3818 103.4999 L 74.5999 109.2 L 72.2727 111.0001 C 69.8 107.7 65.7272 102.0001 65.7272 102.0001 L 57 114 L 89 114 L 75.9091 96 L 75.9091 96 Z" fill="#a7b7c9"/>
	</g>
</svg>