<?xml version="1.0" standalone="no"?>
<!-- Generator: Adobe Fireworks 10, Export SVG Extension by Aaron Beall (http://fireworks.abeall.com) . Version: 0.6.1  -->
<!DOCTYPE svg PUBLIC "-//W3C//DTD SVG 1.1//EN" "http://www.w3.org/Graphics/SVG/1.1/DTD/svg11.dtd">
<svg id="Untitled-Page%201" viewBox="0 0 292 257" style="background-color:#ffffff00" version="1.1"
	xmlns="http://www.w3.org/2000/svg" xmlns:xlink="http://www.w3.org/1999/xlink" xml:space="preserve"
	x="0px" y="0px" width="292px" height="257px"
>
	<g id="Layer%201">
		<g>
			<path d="M 1.2753 10.5993 C 1.2753 4.6375 4.8617 1 10.7393 1 L 282.0353 1 C 287.9128 1 291.4996 4.6375 291.4996 10.5993 L 291.4996 246.4007 C 291.4996 252.3627 287.9128 256 282.0353 256 L 10.7393 256 C 4.8617 256 1.2753 252.3627 1.2753 246.4007 L 1.2753 10.5993 Z" stroke="#cacad0" stroke-width="1" fill="#ffffff"/>
		</g>
		<path id="Ellipse" d="M 24.2931 10 C 24.2931 8.3431 25.6373 7 27.2954 7 C 28.9536 7 30.2977 8.3431 30.2977 10 C 30.2977 11.6569 28.9536 13 27.2954 13 C 25.6373 13 24.2931 11.6569 24.2931 10 Z" fill="#dae0e6"/>
		<path id="Ellipse2" d="M 34.3009 10 C 34.3009 8.3431 35.645 7 37.3032 7 C 38.9613 7 40.3055 8.3431 40.3055 10 C 40.3055 11.6569 38.9613 13 37.3032 13 C 35.645 13 34.3009 11.6569 34.3009 10 Z" fill="#dae0e6"/>
		<path id="Ellipse3" d="M 44.3086 10 C 44.3086 8.3431 45.6528 7 47.3109 7 C 48.969 7 50.3132 8.3431 50.3132 10 C 50.3132 11.6569 48.969 13 47.3109 13 C 45.6528 13 44.3086 11.6569 44.3086 10 Z" fill="#dae0e6"/>
		<g>
			<path d="M 223 82.5 C 223 81.0338 224.582 80 226.8257 80 L 264.1743 80 C 266.418 80 268 81.0338 268 82.5 L 268 82.5 C 268 83.8807 266.418 85 264.1743 85 L 226.8257 85 C 224.582 85 223 83.8807 223 82.5 L 223 82.5 Z" fill="#a7b7c9"/>
		</g>
		<g opacity="0.251">
			<path d="M 46 79.2706 C 46 74.7855 46.7771 74 51.214 74 L 202.7853 74 C 207.2223 74 208 74.7855 208 79.2706 L 208 84.7295 C 208 89.2147 207.2223 90 202.7853 90 L 51.214 90 C 46.7771 90 46 89.2147 46 84.7295 L 46 79.2706 Z" fill="#a7b7c9"/>
		</g>
		<g>
			<path d="M 223 113.5 C 223 112.0338 224.582 111 226.8257 111 L 264.1743 111 C 266.418 111 268 112.0338 268 113.5 L 268 113.5 C 268 114.8807 266.418 116 264.1743 116 L 226.8257 116 C 224.582 116 223 114.8807 223 113.5 L 223 113.5 Z" fill="#a7b7c9"/>
		</g>
		<g>
			<path d="M 223 179.5 C 223 178.0338 224.582 177 226.8257 177 L 264.1743 177 C 266.418 177 268 178.0338 268 179.5 L 268 179.5 C 268 180.8807 266.418 182 264.1743 182 L 226.8257 182 C 224.582 182 223 180.8807 223 179.5 L 223 179.5 Z" fill="#a7b7c9"/>
		</g>
		<g opacity="0.251">
			<path d="M 46 111.2705 C 46 106.7855 46.7771 106 51.214 106 L 202.7853 106 C 207.2223 106 208 106.7855 208 111.2705 L 208 116.7294 C 208 121.2147 207.2223 122 202.7853 122 L 51.214 122 C 46.7771 122 46 121.2147 46 116.7294 L 46 111.2705 Z" fill="#a7b7c9"/>
		</g>
		<g>
			<path d="M 223 145.5 C 223 144.0338 224.582 143 226.8257 143 L 264.1743 143 C 266.418 143 268 144.0338 268 145.5 L 268 145.5 C 268 146.8807 266.418 148 264.1743 148 L 226.8257 148 C 224.582 148 223 146.8807 223 145.5 L 223 145.5 Z" fill="#a7b7c9"/>
		</g>
		<g opacity="0.251">
			<path d="M 46 143.2705 C 46 138.7855 46.7771 138 51.214 138 L 202.7853 138 C 207.2223 138 208 138.7855 208 143.2705 L 208 148.7294 C 208 153.2147 207.2223 154 202.7853 154 L 51.214 154 C 46.7771 154 46 153.2147 46 148.7294 L 46 143.2705 Z" fill="#a7b7c9"/>
		</g>
		<path id="Line" opacity="0.502" d="M 1.5004 19.5 L 291.7246 19.5 " stroke="#b9b9c8" stroke-width="1" fill="none"/>
		<g>
			<path d="M 173.4189 49 C 173.4189 46.2385 176.4558 44 180.2017 44 L 260.416 44 C 264.162 44 267.1987 46.2385 267.1987 49 L 267.1987 49 C 267.1987 51.7615 264.162 54 260.416 54 L 180.2017 54 C 176.4558 54 173.4189 51.7615 173.4189 49 L 173.4189 49 Z" fill="#8eb2fa"/>
		</g>
		<g>
			<path d="M 218 210.0834 C 218 208.5472 218.6378 208 220.4277 208 L 265.5724 208 C 267.3623 208 268 208.5472 268 210.0834 L 268 225.9166 C 268 227.4528 267.3623 228 265.5724 228 L 220.4277 228 C 218.6378 228 218 227.4528 218 225.9166 L 218 210.0834 Z" fill="#94cd67"/>
		</g>
		<g>
			<path d="M 192 175.0511 C 192 173.2325 193.6461 172 196.0748 172 L 203.9252 172 C 206.3539 172 208 173.2325 208 175.0511 L 208 183.949 C 208 185.7675 206.3539 187 203.9252 187 L 196.0748 187 C 193.6461 187 192 185.7675 192 183.949 L 192 175.0511 Z" fill="#8eb2fa"/>
		</g>
		<g id="ui-icon-check">
			<path d="M 199.3843 184 L 195.8021 180.4341 L 197.1055 178.8594 L 200.2307 181.6282 L 199.3843 184 Z" fill="#ffffff"/>
			<path d="M 197.8375 182.4905 L 202.2856 176 L 204 176.985 L 199.3843 184 L 197.8375 182.4905 Z" fill="#ffffff"/>
		</g>
		<path id="ui-icon-arrow-d" d="M 60 81.1106 L 59.001 80 L 56.5 82.778 L 54.0004 80 L 53 81.111 L 56.4994 85 L 57.4998 83.889 L 57.4998 83.8887 L 60 81.1106 Z" fill="#a7b7c9"/>
		<g>
			<path d="M 229 218.5 C 229 217.6203 230.6005 217 232.8701 217 L 254.1299 217 C 256.3995 217 258 217.6203 258 218.5 L 258 218.5 C 258 219.3284 256.3995 220 254.1299 220 L 232.8701 220 C 230.6005 220 229 219.3284 229 218.5 L 229 218.5 Z" fill="#ffffff"/>
		</g>
		<g opacity="0.749">
			<path d="M 114.965 179.5 C 114.965 178.4184 115.2626 178 116.0319 178 L 179.7986 178 C 180.5679 178 180.8655 178.4184 180.8655 179.5 L 180.8655 179.5 C 180.8655 180.3284 180.5679 181 179.7986 181 L 116.0319 181 C 115.2626 181 114.965 180.3284 114.965 179.5 L 114.965 179.5 Z" fill="#c8d2dd"/>
		</g>
	</g>
</svg>