<?xml version="1.0" standalone="no"?>
<!-- Generator: Adobe Fireworks 10, Export SVG Extension by Aaron Beall (http://fireworks.abeall.com) . Version: 0.6.1  -->
<!DOCTYPE svg PUBLIC "-//W3C//DTD SVG 1.1//EN" "http://www.w3.org/Graphics/SVG/1.1/DTD/svg11.dtd">
<svg id="Untitled-Page%201" viewBox="0 0 292 257" style="background-color:#ffffff00" version="1.1"
	xmlns="http://www.w3.org/2000/svg" xmlns:xlink="http://www.w3.org/1999/xlink" xml:space="preserve"
	x="0px" y="0px" width="292px" height="257px"
>
	<defs>
		<filter id="filter1" x="-100%" y="-100%" width="300%" height="300%">
			<!-- Drop Shadow -->
			<feOffset result="out" in="SourceGraphic" dx="0" dy="5"/>
			<feColorMatrix result="out" in="out" type="matrix" values="0 0 0 0.6 0  0 0 0 0.6 0  0 0 0 0.6 0  0 0 0 0.251 0"/>
			<feGaussianBlur result="out" in="out" stdDeviation="15"/>
			<feBlend in="SourceGraphic" in2="out" mode="normal" result="Drop_Shadow1"/>
		</filter>
	</defs>
	<g id="Layer%201">
		<g>
			<path d="M 1.2753 10.5993 C 1.2753 4.6375 4.8617 1 10.7393 1 L 282.0353 1 C 287.9128 1 291.4996 4.6375 291.4996 10.5993 L 291.4996 246.4006 C 291.4996 252.3627 287.9128 256 282.0353 256 L 10.7393 256 C 4.8617 256 1.2753 252.3627 1.2753 246.4006 L 1.2753 10.5993 Z" stroke="#cacad0" stroke-width="1" fill="#ffffff"/>
		</g>
		<g>
			<path d="M 1.2753 21 L 1.2753 21 L 291.4996 21 L 291.4996 21 L 291.4996 131 L 291.4996 131 L 1.2753 131 L 1.2753 131 L 1.2753 21 Z" fill="#a7b7c9"/>
		</g>
		<g filter="url(#filter1)">
			<path d="M 46.3102 90.5369 C 46.3102 86.39 47.4967 85 51.036 85 L 241.7384 85 C 245.2776 85 246.4648 86.39 246.4648 90.5369 L 246.4648 229.4633 C 246.4648 233.6101 245.2776 235 241.7384 235 L 51.036 235 C 47.4967 235 46.3102 233.6101 46.3102 229.4633 L 46.3102 90.5369 Z" fill="#ffffff"/>
		</g>
		<path id="mountain-range" d="M 151.1638 39 L 143.0394 49.8333 L 149.2396 58.0667 L 145.8188 60.6667 C 142.1842 55.9 136.1978 47.6667 136.1978 47.6667 L 123.3696 65 L 170.406 65 L 151.1638 39 L 151.1638 39 Z" fill="#ffffff"/>
		<path id="Line" opacity="0.502" d="M 0.7758 20.5 L 291 20.5 " stroke="#b9b9c8" stroke-width="1" fill="none"/>
		<path id="Ellipse" d="M 24.2931 10 C 24.2931 8.3431 25.6373 7 27.2954 7 C 28.9536 7 30.2977 8.3431 30.2977 10 C 30.2977 11.6569 28.9536 13 27.2954 13 C 25.6373 13 24.2931 11.6569 24.2931 10 Z" fill="#dae0e6"/>
		<path id="Ellipse2" d="M 34.3009 10 C 34.3009 8.3431 35.645 7 37.3032 7 C 38.9613 7 40.3055 8.3431 40.3055 10 C 40.3055 11.6569 38.9613 13 37.3032 13 C 35.645 13 34.3009 11.6569 34.3009 10 Z" fill="#dae0e6"/>
		<path id="Ellipse3" d="M 44.3086 10 C 44.3086 8.3431 45.6528 7 47.3109 7 C 48.969 7 50.3132 8.3431 50.3132 10 C 50.3132 11.6569 48.969 13 47.3109 13 C 45.6528 13 44.3086 11.6569 44.3086 10 Z" fill="#dae0e6"/>
		<g>
			<path d="M 182.4851 115.6013 C 182.4851 114.6622 183.4875 114 184.9094 114 L 208.5758 114 C 209.9976 114 211 114.6622 211 115.6013 L 211 115.6013 C 211 116.4857 209.9976 117.2026 208.5758 117.2026 L 184.9094 117.2026 C 183.4875 117.2026 182.4851 116.4857 182.4851 115.6013 L 182.4851 115.6013 Z" fill="#a7b7c9"/>
		</g>
		<g opacity="0.251">
			<path d="M 83 125.7027 C 83 122.8299 83.614 122.3268 87.1198 122.3268 L 206.8796 122.3268 C 210.3855 122.3268 211 122.8299 211 125.7027 L 211 129.1993 C 211 132.0721 210.3855 132.5751 206.8796 132.5751 L 87.1198 132.5751 C 83.614 132.5751 83 132.0721 83 129.1993 L 83 125.7027 Z" fill="#a7b7c9"/>
		</g>
		<g>
			<path d="M 182.4851 148.9085 C 182.4851 147.9694 183.4875 147.3072 184.9094 147.3072 L 208.5758 147.3072 C 209.9976 147.3072 211 147.9694 211 148.9085 L 211 148.9085 C 211 149.7929 209.9976 150.5098 208.5758 150.5098 L 184.9094 150.5098 C 183.4875 150.5098 182.4851 149.7929 182.4851 148.9085 L 182.4851 148.9085 Z" fill="#a7b7c9"/>
		</g>
		<g opacity="0.251">
			<path d="M 83 159.6504 C 83 156.7776 83.614 156.2745 87.1198 156.2745 L 206.8796 156.2745 C 210.3855 156.2745 211 156.7776 211 159.6504 L 211 163.147 C 211 166.0199 210.3855 166.5229 206.8796 166.5229 L 87.1198 166.5229 C 83.614 166.5229 83 166.0199 83 163.147 L 83 159.6504 Z" fill="#a7b7c9"/>
		</g>
		<g>
			<path d="M 179.3169 200.524 C 179.3169 199.54 179.7209 199.1895 180.8552 199.1895 L 209.4617 199.1895 C 210.5959 199.1895 211 199.54 211 200.524 L 211 210.6655 C 211 211.6495 210.5959 212 209.4617 212 L 180.8552 212 C 179.7209 212 179.3169 211.6495 179.3169 210.6655 L 179.3169 200.524 Z" fill="#94cd67"/>
		</g>
		<g>
			<path d="M 200.8613 181.9281 C 200.8613 180.7634 201.9045 179.9739 203.4435 179.9739 L 208.418 179.9739 C 209.9569 179.9739 211 180.7634 211 181.9281 L 211 187.6274 C 211 188.7922 209.9569 189.5817 208.418 189.5817 L 203.4435 189.5817 C 201.9045 189.5817 200.8613 188.7922 200.8613 187.6274 L 200.8613 181.9281 Z" fill="#8eb2fa"/>
		</g>
		<g id="ui-icon-check">
			<path d="M 205.5405 187.6602 L 203.2706 185.3761 L 204.0966 184.3674 L 206.0769 186.141 L 205.5405 187.6602 Z" fill="#ffffff"/>
			<path d="M 204.5604 186.6932 L 207.379 182.5359 L 208.4653 183.1669 L 205.5405 187.6602 L 204.5604 186.6932 Z" fill="#ffffff"/>
		</g>
		<path id="ui-icon-arrow-d" d="M 91.8713 126.8813 L 91.2383 126.17 L 89.6534 127.9493 L 88.0696 126.17 L 87.4357 126.8815 L 89.6531 129.3726 L 90.287 128.6609 L 90.287 128.6607 L 91.8713 126.8813 Z" fill="#a7b7c9"/>
		<g>
			<path d="M 186.2871 205.915 C 186.2871 205.3516 187.3013 204.9542 188.7395 204.9542 L 202.2109 204.9542 C 203.6492 204.9542 204.6633 205.3516 204.6633 205.915 L 204.6633 205.915 C 204.6633 206.4456 203.6492 206.8758 202.2109 206.8758 L 188.7395 206.8758 C 187.3013 206.8758 186.2871 206.4456 186.2871 205.915 L 186.2871 205.915 Z" fill="#ffffff"/>
		</g>
		<g opacity="0.749">
			<path d="M 152.0471 184.7778 C 152.0471 184.085 152.2357 183.817 152.7231 183.817 L 193.1299 183.817 C 193.6172 183.817 193.8059 184.085 193.8059 184.7778 L 193.8059 184.7778 C 193.8059 185.3084 193.6172 185.7385 193.1299 185.7385 L 152.7231 185.7385 C 152.2357 185.7385 152.0471 185.3084 152.0471 184.7778 L 152.0471 184.7778 Z" fill="#c8d2dd"/>
		</g>
	</g>
</svg>