<?xml version="1.0" standalone="no"?>
<!-- Generator: Adobe Fireworks 10, Export SVG Extension by Aaron Beall (http://fireworks.abeall.com) . Version: 0.6.1  -->
<!DOCTYPE svg PUBLIC "-//W3C//DTD SVG 1.1//EN" "http://www.w3.org/Graphics/SVG/1.1/DTD/svg11.dtd">
<svg id="Untitled-Page%201" viewBox="0 0 292 257" style="background-color:#ffffff00" version="1.1"
	xmlns="http://www.w3.org/2000/svg" xmlns:xlink="http://www.w3.org/1999/xlink" xml:space="preserve"
	x="0px" y="0px" width="292px" height="257px"
>
	<g id="Layer%201">
		<g>
			<path d="M 1.2753 10.5993 C 1.2753 4.6375 4.8617 1 10.7393 1 L 282.0353 1 C 287.9128 1 291.4996 4.6375 291.4996 10.5993 L 291.4996 246.4007 C 291.4996 252.3627 287.9128 256 282.0353 256 L 10.7393 256 C 4.8617 256 1.2753 252.3627 1.2753 246.4007 L 1.2753 10.5993 Z" stroke="#cacad0" stroke-width="1" fill="#ffffff"/>
		</g>
		<path id="Ellipse" d="M 24.2931 10 C 24.2931 8.3431 25.6373 7 27.2954 7 C 28.9536 7 30.2977 8.3431 30.2977 10 C 30.2977 11.6569 28.9536 13 27.2954 13 C 25.6373 13 24.2931 11.6569 24.2931 10 Z" fill="#dae0e6"/>
		<path id="Ellipse2" d="M 34.3009 10 C 34.3009 8.3431 35.645 7 37.3032 7 C 38.9613 7 40.3055 8.3431 40.3055 10 C 40.3055 11.6569 38.9613 13 37.3032 13 C 35.645 13 34.3009 11.6569 34.3009 10 Z" fill="#dae0e6"/>
		<path id="Ellipse3" d="M 44.3086 10 C 44.3086 8.3431 45.6528 7 47.3109 7 C 48.9691 7 50.3132 8.3431 50.3132 10 C 50.3132 11.6569 48.9691 13 47.3109 13 C 45.6528 13 44.3086 11.6569 44.3086 10 Z" fill="#dae0e6"/>
		<g>
			<path d="M 213 127.5 C 213 126.0338 214.582 125 216.8257 125 L 254.1743 125 C 256.418 125 258 126.0338 258 127.5 L 258 127.5 C 258 128.8807 256.418 130 254.1743 130 L 216.8257 130 C 214.582 130 213 128.8807 213 127.5 L 213 127.5 Z" fill="#a7b7c9"/>
		</g>
		<g>
			<path d="M 220 135.5 C 220 134.4184 220.5432 134 221.9474 134 L 248.0526 134 C 249.4568 134 250 134.4184 250 135.5 L 250 135.5 C 250 136.3285 249.4568 137 248.0526 137 L 221.9474 137 C 220.5432 137 220 136.3284 220 135.5 L 220 135.5 Z" fill="#e8ebf0"/>
		</g>
		<g>
			<path d="M 33 127.5 C 33 126.0338 34.582 125 36.8257 125 L 74.1743 125 C 76.418 125 78 126.0338 78 127.5 L 78 127.5 C 78 128.8807 76.418 130 74.1743 130 L 36.8257 130 C 34.582 130 33 128.8807 33 127.5 L 33 127.5 Z" fill="#a7b7c9"/>
		</g>
		<g>
			<path d="M 40 135.5 C 40 134.4184 40.5432 134 41.9474 134 L 68.0526 134 C 69.4568 134 70 134.4184 70 135.5 L 70 135.5 C 70 136.3285 69.4568 137 68.0526 137 L 41.9474 137 C 40.5432 137 40 136.3284 40 135.5 L 40 135.5 Z" fill="#e8ebf0"/>
		</g>
		<g opacity="0.251">
			<path d="M 110 77.2915 C 110 73.3284 111.3232 72 115.2706 72 L 174.7288 72 C 178.6763 72 180 73.3284 180 77.2915 L 180 108.7084 C 180 112.6717 178.6763 114 174.7288 114 L 115.2706 114 C 111.3232 114 110 112.6717 110 108.7084 L 110 77.2915 Z" fill="#a7b7c9"/>
		</g>
		<g>
			<path d="M 123 127.5 C 123 126.0338 124.582 125 126.8257 125 L 164.1743 125 C 166.418 125 168 126.0338 168 127.5 L 168 127.5 C 168 128.8807 166.418 130 164.1743 130 L 126.8257 130 C 124.582 130 123 128.8807 123 127.5 L 123 127.5 Z" fill="#a7b7c9"/>
		</g>
		<g>
			<path d="M 130 135.5 C 130 134.4184 130.5432 134 131.9474 134 L 158.0526 134 C 159.4568 134 160 134.4184 160 135.5 L 160 135.5 C 160 136.3285 159.4568 137 158.0526 137 L 131.9474 137 C 130.5432 137 130 136.3284 130 135.5 L 130 135.5 Z" fill="#e8ebf0"/>
		</g>
		<g>
			<path d="M 213 217.5 C 213 216.0338 214.582 215 216.8257 215 L 254.1743 215 C 256.418 215 258 216.0338 258 217.5 L 258 217.5 C 258 218.8807 256.418 220 254.1743 220 L 216.8257 220 C 214.582 220 213 218.8807 213 217.5 L 213 217.5 Z" fill="#a7b7c9"/>
		</g>
		<g>
			<path d="M 220 225.5 C 220 224.4184 220.5432 224 221.9474 224 L 248.0526 224 C 249.4568 224 250 224.4184 250 225.5 L 250 225.5 C 250 226.3285 249.4568 227 248.0526 227 L 221.9474 227 C 220.5432 227 220 226.3284 220 225.5 L 220 225.5 Z" fill="#e8ebf0"/>
		</g>
		<g>
			<path d="M 33 217.5 C 33 216.0338 34.582 215 36.8257 215 L 74.1743 215 C 76.418 215 78 216.0338 78 217.5 L 78 217.5 C 78 218.8807 76.418 220 74.1743 220 L 36.8257 220 C 34.582 220 33 218.8807 33 217.5 L 33 217.5 Z" fill="#a7b7c9"/>
		</g>
		<g>
			<path d="M 40 225.5 C 40 224.4184 40.5432 224 41.9474 224 L 68.0526 224 C 69.4568 224 70 224.4184 70 225.5 L 70 225.5 C 70 226.3285 69.4568 227 68.0526 227 L 41.9474 227 C 40.5432 227 40 226.3284 40 225.5 L 40 225.5 Z" fill="#e8ebf0"/>
		</g>
		<g opacity="0.251">
			<path d="M 110 167.2915 C 110 163.3284 111.3232 162 115.2706 162 L 174.7288 162 C 178.6763 162 180 163.3284 180 167.2915 L 180 198.7084 C 180 202.6717 178.6763 204 174.7288 204 L 115.2706 204 C 111.3232 204 110 202.6717 110 198.7084 L 110 167.2915 Z" fill="#a7b7c9"/>
		</g>
		<g opacity="0.251">
			<path d="M 200 167.2915 C 200 163.3284 201.3232 162 205.2706 162 L 264.7288 162 C 268.6763 162 270 163.3284 270 167.2915 L 270 198.7084 C 270 202.6717 268.6763 204 264.7288 204 L 205.2706 204 C 201.3232 204 200 202.6717 200 198.7084 L 200 167.2915 Z" fill="#a7b7c9"/>
		</g>
		<g opacity="0.251">
			<path d="M 22 167.2915 C 22 163.3284 23.3232 162 27.2706 162 L 86.7288 162 C 90.6763 162 92 163.3284 92 167.2915 L 92 198.7084 C 92 202.6717 90.6763 204 86.7288 204 L 27.2706 204 C 23.3232 204 22 202.6717 22 198.7084 L 22 167.2915 Z" fill="#a7b7c9"/>
		</g>
		<g opacity="0.251">
			<path d="M 200 77.2915 C 200 73.3284 201.3232 72 205.2706 72 L 264.7288 72 C 268.6763 72 270 73.3284 270 77.2915 L 270 108.7084 C 270 112.6717 268.6763 114 264.7288 114 L 205.2706 114 C 201.3232 114 200 112.6717 200 108.7084 L 200 77.2915 Z" fill="#a7b7c9"/>
		</g>
		<g opacity="0.251">
			<path d="M 22 77.2915 C 22 73.3284 23.3232 72 27.2706 72 L 86.7288 72 C 90.6763 72 92 73.3284 92 77.2915 L 92 108.7084 C 92 112.6717 90.6763 114 86.7288 114 L 27.2706 114 C 23.3232 114 22 112.6717 22 108.7084 L 22 77.2915 Z" fill="#a7b7c9"/>
		</g>
		<g>
			<path d="M 123 217.5 C 123 216.0338 124.582 215 126.8257 215 L 164.1743 215 C 166.418 215 168 216.0338 168 217.5 L 168 217.5 C 168 218.8807 166.418 220 164.1743 220 L 126.8257 220 C 124.582 220 123 218.8807 123 217.5 L 123 217.5 Z" fill="#a7b7c9"/>
		</g>
		<g>
			<path d="M 130 225.5 C 130 224.4184 130.5432 224 131.9474 224 L 158.0526 224 C 159.4568 224 160 224.4184 160 225.5 L 160 225.5 C 160 226.3285 159.4568 227 158.0526 227 L 131.9474 227 C 130.5432 227 130 226.3284 130 225.5 L 130 225.5 Z" fill="#e8ebf0"/>
		</g>
		<path id="Line" opacity="0.502" d="M 1.5004 19.5 L 291.7247 19.5 " stroke="#b9b9c8" stroke-width="1" fill="none"/>
		<path id="mountain-range" d="M 60.2727 172 L 54.0546 180.3333 L 58.7999 186.6667 L 56.1818 188.6667 C 53.4 185 48.8181 178.6667 48.8181 178.6667 L 39 192 L 75 192 L 60.2727 172 L 60.2727 172 Z" fill="#a7b7c9"/>
		<path id="mountain-range2" d="M 148.2727 172 L 142.0546 180.3333 L 146.7999 186.6667 L 144.1818 188.6667 C 141.4 185 136.8181 178.6667 136.8181 178.6667 L 127 192 L 163 192 L 148.2727 172 L 148.2727 172 Z" fill="#a7b7c9"/>
		<path id="mountain-range3" d="M 238.2727 172 L 232.0546 180.3333 L 236.7999 186.6667 L 234.1818 188.6667 C 231.4 185 226.8181 178.6667 226.8181 178.6667 L 217 192 L 253 192 L 238.2727 172 L 238.2727 172 Z" fill="#a7b7c9"/>
		<path id="mountain-range4" d="M 60.2727 82 L 54.0546 90.3333 L 58.7999 96.6667 L 56.1818 98.6667 C 53.4 95 48.8181 88.6667 48.8181 88.6667 L 39 102 L 75 102 L 60.2727 82 L 60.2727 82 Z" fill="#a7b7c9"/>
		<path id="mountain-range5" d="M 148.2727 82 L 142.0546 90.3333 L 146.7999 96.6667 L 144.1818 98.6667 C 141.4 95 136.8181 88.6667 136.8181 88.6667 L 127 102 L 163 102 L 148.2727 82 L 148.2727 82 Z" fill="#a7b7c9"/>
		<path id="mountain-range6" d="M 238.2727 82 L 232.0546 90.3333 L 236.7999 96.6667 L 234.1818 98.6667 C 231.4 95 226.8181 88.6667 226.8181 88.6667 L 217 102 L 253 102 L 238.2727 82 L 238.2727 82 Z" fill="#a7b7c9"/>
		<g>
			<path d="M 99.4189 46 C 99.4189 43.2385 102.4557 41 106.2017 41 L 186.416 41 C 190.162 41 193.1987 43.2385 193.1987 46 L 193.1987 46 C 193.1987 48.7615 190.162 51 186.416 51 L 106.2017 51 C 102.4557 51 99.4189 48.7615 99.4189 46 L 99.4189 46 Z" fill="#8eb2fa"/>
		</g>
	</g>
</svg>