<?xml version="1.0" standalone="no"?>
<!-- Generator: Adobe Fireworks 10, Export SVG Extension by Aaron Beall (http://fireworks.abeall.com) . Version: 0.6.1  -->
<!DOCTYPE svg PUBLIC "-//W3C//DTD SVG 1.1//EN" "http://www.w3.org/Graphics/SVG/1.1/DTD/svg11.dtd">
<svg id="Untitled-Page%201" viewBox="0 0 292 257" style="background-color:#ffffff00" version="1.1"
	xmlns="http://www.w3.org/2000/svg" xmlns:xlink="http://www.w3.org/1999/xlink" xml:space="preserve"
	x="0px" y="0px" width="292px" height="257px"
>
	<g id="Layer%201">
		<g>
			<path d="M 1.2753 10.5994 C 1.2753 4.6375 4.8617 1 10.7393 1 L 282.0353 1 C 287.9128 1 291.4996 4.6375 291.4996 10.5994 L 291.4996 246.4006 C 291.4996 252.3627 287.9128 256 282.0353 256 L 10.7393 256 C 4.8617 256 1.2753 252.3627 1.2753 246.4006 L 1.2753 10.5994 Z" stroke="#cacad0" stroke-width="1" fill="#ffffff"/>
		</g>
		<g opacity="0.251">
			<path d="M 195 80.3682 C 195 76.3477 196.332 75 200.3055 75 L 265.6939 75 C 269.6675 75 271 76.3477 271 80.3682 L 271 139.6318 C 271 143.6523 269.6675 145 265.6939 145 L 200.3055 145 C 196.332 145 195 143.6523 195 139.6318 L 195 80.3682 Z" fill="#a7b7c9"/>
		</g>
		<path id="Ellipse" d="M 24.2931 10 C 24.2931 8.3431 25.6373 7 27.2954 7 C 28.9536 7 30.2977 8.3431 30.2977 10 C 30.2977 11.6569 28.9536 13 27.2954 13 C 25.6373 13 24.2931 11.6569 24.2931 10 Z" fill="#dae0e6"/>
		<path id="Ellipse2" d="M 34.3009 10 C 34.3009 8.3431 35.645 7 37.3032 7 C 38.9613 7 40.3055 8.3431 40.3055 10 C 40.3055 11.6569 38.9613 13 37.3032 13 C 35.645 13 34.3009 11.6569 34.3009 10 Z" fill="#dae0e6"/>
		<path id="Ellipse3" d="M 44.3086 10 C 44.3086 8.3431 45.6528 7 47.3109 7 C 48.9691 7 50.3132 8.3431 50.3132 10 C 50.3132 11.6569 48.9691 13 47.3109 13 C 45.6528 13 44.3086 11.6569 44.3086 10 Z" fill="#dae0e6"/>
		<g>
			<path d="M 132 92.5 C 132 91.0338 133.582 90 135.8257 90 L 173.1743 90 C 175.418 90 177 91.0338 177 92.5 L 177 92.5 C 177 93.8807 175.418 95 173.1743 95 L 135.8257 95 C 133.582 95 132 93.8807 132 92.5 L 132 92.5 Z" fill="#a7b7c9"/>
		</g>
		<g>
			<path d="M 220 135.5 C 220 134.4185 220.5432 134 221.9474 134 L 248.0526 134 C 249.4568 134 250 134.4185 250 135.5 L 250 135.5 C 250 136.3285 249.4568 137 248.0526 137 L 221.9474 137 C 220.5432 137 220 136.3284 220 135.5 L 220 135.5 Z" fill="#e8ebf0"/>
		</g>
		<path id="Line" opacity="0.502" d="M 1.5004 19.5 L 291.7247 19.5 " stroke="#b9b9c8" stroke-width="1" fill="none"/>
		<path id="mountain-range" d="M 236.2727 97 L 230.0546 105.3333 L 234.7999 111.6666 L 232.1818 113.6667 C 229.4 110 224.8181 103.6667 224.8181 103.6667 L 215 117 L 251 117 L 236.2727 97 L 236.2727 97 Z" fill="#a7b7c9"/>
		<g>
			<path d="M 99.4189 46 C 99.4189 43.2385 102.4557 41 106.2017 41 L 186.416 41 C 190.162 41 193.1987 43.2385 193.1987 46 L 193.1987 46 C 193.1987 48.7615 190.162 51 186.416 51 L 106.2017 51 C 102.4557 51 99.4189 48.7615 99.4189 46 L 99.4189 46 Z" fill="#8eb2fa"/>
		</g>
		<g opacity="0.749">
			<path d="M 30 108.5 C 30 107.4185 30.3281 107 31.1764 107 L 176.8236 107 C 177.6718 107 178 107.4185 178 108.5 L 178 108.5 C 178 109.3284 177.6718 110 176.8236 110 L 31.1764 110 C 30.3281 110 30 109.3284 30 108.5 L 30 108.5 Z" fill="#c8d2dd"/>
		</g>
		<g opacity="0.749">
			<path d="M 90.1626 118.5 C 90.1626 117.4185 90.3574 117 90.8608 117 L 177.3018 117 C 177.8053 117 178 117.4185 178 118.5 L 178 118.5 C 178 119.3284 177.8053 120 177.3018 120 L 90.8608 120 C 90.3574 120 90.1626 119.3284 90.1626 118.5 L 90.1626 118.5 Z" fill="#c8d2dd"/>
		</g>
		<g opacity="0.251">
			<path d="M 195 167.3682 C 195 163.3477 196.332 162 200.3055 162 L 265.6939 162 C 269.6675 162 271 163.3477 271 167.3682 L 271 226.6318 C 271 230.6523 269.6675 232 265.6939 232 L 200.3055 232 C 196.332 232 195 230.6523 195 226.6318 L 195 167.3682 Z" fill="#a7b7c9"/>
		</g>
		<g>
			<path d="M 132 179.5 C 132 178.0338 133.582 177 135.8257 177 L 173.1743 177 C 175.418 177 177 178.0338 177 179.5 L 177 179.5 C 177 180.8807 175.418 182 173.1743 182 L 135.8257 182 C 133.582 182 132 180.8807 132 179.5 L 132 179.5 Z" fill="#a7b7c9"/>
		</g>
		<path id="mountain-range2" d="M 236.2727 184 L 230.0546 192.3333 L 234.7999 198.6666 L 232.1818 200.6667 C 229.4 197 224.8181 190.6667 224.8181 190.6667 L 215 204 L 251 204 L 236.2727 184 L 236.2727 184 Z" fill="#a7b7c9"/>
		<g opacity="0.749">
			<path d="M 30 195.5 C 30 194.4185 30.3281 194 31.1764 194 L 176.8236 194 C 177.6718 194 178 194.4185 178 195.5 L 178 195.5 C 178 196.3284 177.6718 197 176.8236 197 L 31.1764 197 C 30.3281 197 30 196.3284 30 195.5 L 30 195.5 Z" fill="#c8d2dd"/>
		</g>
		<g opacity="0.749">
			<path d="M 90.1626 205.5 C 90.1626 204.4185 90.3574 204 90.8608 204 L 177.3018 204 C 177.8053 204 178 204.4185 178 205.5 L 178 205.5 C 178 206.3284 177.8053 207 177.3018 207 L 90.8608 207 C 90.3574 207 90.1626 206.3284 90.1626 205.5 L 90.1626 205.5 Z" fill="#c8d2dd"/>
		</g>
	</g>
</svg>