<?xml version="1.0" standalone="no"?>
<!-- Generator: Adobe Fireworks 10, Export SVG Extension by Aaron Beall (http://fireworks.abeall.com) . Version: 0.6.1  -->
<!DOCTYPE svg PUBLIC "-//W3C//DTD SVG 1.1//EN" "http://www.w3.org/Graphics/SVG/1.1/DTD/svg11.dtd">
<svg id="Untitled-Page%201" viewBox="0 0 292 257" style="background-color:#ffffff00" version="1.1"
	xmlns="http://www.w3.org/2000/svg" xmlns:xlink="http://www.w3.org/1999/xlink" xml:space="preserve"
	x="0px" y="0px" width="292px" height="257px"
>
	<g id="Layer%201">
		<g>
			<path d="M 1.2753 10.5994 C 1.2753 4.6375 4.8617 1 10.7393 1 L 282.0353 1 C 287.9128 1 291.4996 4.6375 291.4996 10.5994 L 291.4996 246.4006 C 291.4996 252.3627 287.9128 256 282.0353 256 L 10.7393 256 C 4.8617 256 1.2753 252.3627 1.2753 246.4006 L 1.2753 10.5994 Z" stroke="#cacad0" stroke-width="1" fill="#ffffff"/>
		</g>
		<g opacity="0.251">
			<path d="M 155 77.1833 C 155 73.3013 156.3313 72 160.303 72 L 267.6964 72 C 271.6682 72 273 73.3013 273 77.1833 L 273 128.8167 C 273 132.6987 271.6682 134 267.6964 134 L 160.303 134 C 156.3313 134 155 132.6987 155 128.8167 L 155 77.1833 Z" fill="#a7b7c9"/>
		</g>
		<path id="Ellipse" d="M 24.2931 10 C 24.2931 8.3431 25.6373 7 27.2954 7 C 28.9536 7 30.2977 8.3431 30.2977 10 C 30.2977 11.6569 28.9536 13 27.2954 13 C 25.6373 13 24.2931 11.6569 24.2931 10 Z" fill="#dae0e6"/>
		<path id="Ellipse2" d="M 34.3009 10 C 34.3009 8.3431 35.645 7 37.3032 7 C 38.9613 7 40.3055 8.3431 40.3055 10 C 40.3055 11.6569 38.9613 13 37.3032 13 C 35.645 13 34.3009 11.6569 34.3009 10 Z" fill="#dae0e6"/>
		<path id="Ellipse3" d="M 44.3086 10 C 44.3086 8.3431 45.6528 7 47.3109 7 C 48.9691 7 50.3132 8.3431 50.3132 10 C 50.3132 11.6569 48.9691 13 47.3109 13 C 45.6528 13 44.3086 11.6569 44.3086 10 Z" fill="#dae0e6"/>
		<g opacity="0.251">
			<path d="M 20 77.1833 C 20 73.3013 21.3313 72 25.303 72 L 132.6964 72 C 136.6682 72 138 73.3013 138 77.1833 L 138 128.8167 C 138 132.6987 136.6682 134 132.6964 134 L 25.303 134 C 21.3313 134 20 132.6987 20 128.8167 L 20 77.1833 Z" fill="#a7b7c9"/>
		</g>
		<g>
			<path d="M 54 146.5 C 54 145.0338 55.582 144 57.8257 144 L 95.1743 144 C 97.418 144 99 145.0338 99 146.5 L 99 146.5 C 99 147.8807 97.418 149 95.1743 149 L 57.8257 149 C 55.582 149 54 147.8807 54 146.5 L 54 146.5 Z" fill="#a7b7c9"/>
		</g>
		<g>
			<path d="M 61 154.5 C 61 153.4185 61.5432 153 62.9474 153 L 89.0526 153 C 90.4568 153 91 153.4185 91 154.5 L 91 154.5 C 91 155.3285 90.4568 156 89.0526 156 L 62.9474 156 C 61.5432 156 61 155.3284 61 154.5 L 61 154.5 Z" fill="#e8ebf0"/>
		</g>
		<path id="Line" opacity="0.502" d="M 1.5004 19.5 L 291.7247 19.5 " stroke="#b9b9c8" stroke-width="1" fill="none"/>
		<path id="mountain-range" d="M 81.4091 89 L 73.9818 98.9999 L 79.6499 106.6 L 76.5226 109.0001 C 73.2 104.6 67.7272 97.0001 67.7272 97.0001 L 56 113 L 99 113 L 81.4091 89 L 81.4091 89 Z" fill="#a7b7c9"/>
		<g>
			<path d="M 191 146.5 C 191 145.0338 192.582 144 194.8257 144 L 232.1743 144 C 234.418 144 236 145.0338 236 146.5 L 236 146.5 C 236 147.8807 234.418 149 232.1743 149 L 194.8257 149 C 192.582 149 191 147.8807 191 146.5 L 191 146.5 Z" fill="#a7b7c9"/>
		</g>
		<g>
			<path d="M 198 154.5 C 198 153.4185 198.5432 153 199.9474 153 L 226.0526 153 C 227.4568 153 228 153.4185 228 154.5 L 228 154.5 C 228 155.3285 227.4568 156 226.0526 156 L 199.9474 156 C 198.5432 156 198 155.3284 198 154.5 L 198 154.5 Z" fill="#e8ebf0"/>
		</g>
		<path id="mountain-range2" d="M 218.4091 89 L 210.9818 98.9999 L 216.6499 106.6 L 213.5226 109.0001 C 210.2 104.6 204.7272 97.0001 204.7272 97.0001 L 193 113 L 236 113 L 218.4091 89 L 218.4091 89 Z" fill="#a7b7c9"/>
		<g opacity="0.251">
			<path d="M 155 177.1833 C 155 173.3013 156.3313 172 160.303 172 L 267.6964 172 C 271.6682 172 273 173.3013 273 177.1833 L 273 228.8167 C 273 232.6987 271.6682 234 267.6964 234 L 160.303 234 C 156.3313 234 155 232.6987 155 228.8167 L 155 177.1833 Z" fill="#a7b7c9"/>
		</g>
		<g opacity="0.251">
			<path d="M 20 177.1833 C 20 173.3013 21.3313 172 25.303 172 L 132.6964 172 C 136.6682 172 138 173.3013 138 177.1833 L 138 228.8167 C 138 232.6987 136.6682 234 132.6964 234 L 25.303 234 C 21.3313 234 20 232.6987 20 228.8167 L 20 177.1833 Z" fill="#a7b7c9"/>
		</g>
		<g>
			<path d="M 54 246.5 C 54 245.0338 55.582 244 57.8257 244 L 95.1743 244 C 97.418 244 99 245.0338 99 246.5 L 99 246.5 C 99 247.8807 97.418 249 95.1743 249 L 57.8257 249 C 55.582 249 54 247.8807 54 246.5 L 54 246.5 Z" fill="#a7b7c9"/>
		</g>
		<path id="mountain-range3" d="M 81.4091 189 L 73.9818 198.9999 L 79.6499 206.6 L 76.5226 209.0001 C 73.2 204.6 67.7272 197.0001 67.7272 197.0001 L 56 213 L 99 213 L 81.4091 189 L 81.4091 189 Z" fill="#a7b7c9"/>
		<g>
			<path d="M 191 246.5 C 191 245.0338 192.582 244 194.8257 244 L 232.1743 244 C 234.418 244 236 245.0338 236 246.5 L 236 246.5 C 236 247.8807 234.418 249 232.1743 249 L 194.8257 249 C 192.582 249 191 247.8807 191 246.5 L 191 246.5 Z" fill="#a7b7c9"/>
		</g>
		<path id="mountain-range4" d="M 218.4091 189 L 210.9818 198.9999 L 216.6499 206.6 L 213.5226 209.0001 C 210.2 204.6 204.7272 197.0001 204.7272 197.0001 L 193 213 L 236 213 L 218.4091 189 L 218.4091 189 Z" fill="#a7b7c9"/>
		<g>
			<path d="M 99.4189 46 C 99.4189 43.2385 102.4557 41 106.2017 41 L 186.416 41 C 190.162 41 193.1987 43.2385 193.1987 46 L 193.1987 46 C 193.1987 48.7615 190.162 51 186.416 51 L 106.2017 51 C 102.4557 51 99.4189 48.7615 99.4189 46 L 99.4189 46 Z" fill="#8eb2fa"/>
		</g>
	</g>
</svg>