<?xml version="1.0" standalone="no"?>
<!-- Generator: Adobe Fireworks 10, Export SVG Extension by Aaron Beall (http://fireworks.abeall.com) . Version: 0.6.1  -->
<!DOCTYPE svg PUBLIC "-//W3C//DTD SVG 1.1//EN" "http://www.w3.org/Graphics/SVG/1.1/DTD/svg11.dtd">
<svg id="Untitled-Page%201" viewBox="0 0 292 257" style="background-color:#ffffff00" version="1.1"
	xmlns="http://www.w3.org/2000/svg" xmlns:xlink="http://www.w3.org/1999/xlink" xml:space="preserve"
	x="0px" y="0px" width="292px" height="257px"
>
	<g id="Layer%201">
		<g>
			<path d="M 1.2753 10.5994 C 1.2753 4.6375 4.8617 1 10.7393 1 L 282.0353 1 C 287.9128 1 291.4996 4.6375 291.4996 10.5994 L 291.4996 246.4006 C 291.4996 252.3627 287.9128 256 282.0353 256 L 10.7393 256 C 4.8617 256 1.2753 252.3627 1.2753 246.4006 L 1.2753 10.5994 Z" stroke="#cacad0" stroke-width="1" fill="#ffffff"/>
		</g>
		<path id="Ellipse" d="M 24.2931 10 C 24.2931 8.3431 25.6373 7 27.2954 7 C 28.9536 7 30.2977 8.3431 30.2977 10 C 30.2977 11.6569 28.9536 13 27.2954 13 C 25.6373 13 24.2931 11.6569 24.2931 10 Z" fill="#dae0e6"/>
		<path id="Ellipse2" d="M 34.3009 10 C 34.3009 8.3431 35.645 7 37.3032 7 C 38.9613 7 40.3055 8.3431 40.3055 10 C 40.3055 11.6569 38.9613 13 37.3032 13 C 35.645 13 34.3009 11.6569 34.3009 10 Z" fill="#dae0e6"/>
		<path id="Ellipse3" d="M 44.3086 10 C 44.3086 8.3431 45.6528 7 47.3109 7 C 48.9691 7 50.3132 8.3431 50.3132 10 C 50.3132 11.6569 48.9691 13 47.3109 13 C 45.6528 13 44.3086 11.6569 44.3086 10 Z" fill="#dae0e6"/>
		<path id="Line" opacity="0.502" d="M 1.5004 19.5 L 291.7247 19.5 " stroke="#b9b9c8" stroke-width="1" fill="none"/>
		<g>
			<path d="M 99.4189 46 C 99.4189 43.2385 102.4557 41 106.2017 41 L 186.416 41 C 190.162 41 193.1987 43.2385 193.1987 46 L 193.1987 46 C 193.1987 48.7615 190.162 51 186.416 51 L 106.2017 51 C 102.4557 51 99.4189 48.7615 99.4189 46 L 99.4189 46 Z" fill="#8eb2fa"/>
		</g>
		<g>
			<path d="M 220.8494 205.0703 C 220.8494 202.0219 221.873 201 224.9267 201 L 270.9223 201 C 273.976 201 275 202.0219 275 205.0703 L 275 229.2373 C 275 232.2859 273.976 233.3077 270.9223 233.3077 L 224.9267 233.3077 C 221.873 233.3077 220.8494 232.2859 220.8494 229.2373 L 220.8494 205.0703 Z" fill="#75a0f6"/>
		</g>
		<path id="mountain-range" d="M 250.4564 208.6924 L 245.6462 215.1025 L 249.3171 219.9744 L 247.2917 221.5128 C 245.1398 218.6923 241.5953 213.8206 241.5953 213.8206 L 234.0002 224.0769 L 261.8492 224.0769 L 250.4564 208.6924 L 250.4564 208.6924 Z" fill="#ffffff"/>
		<g opacity="0.251">
			<path d="M 153.8996 205.0703 C 153.8996 202.0219 154.9232 201 157.9769 201 L 203.9725 201 C 207.0261 201 208.0502 202.0219 208.0502 205.0703 L 208.0502 229.2373 C 208.0502 232.2859 207.0261 233.3077 203.9725 233.3077 L 157.9769 233.3077 C 154.9232 233.3077 153.8996 232.2859 153.8996 229.2373 L 153.8996 205.0703 Z" fill="#a7b7c9"/>
		</g>
		<path id="mountain-range2" d="M 183.5066 208.6924 L 178.6964 215.1025 L 182.3673 219.9744 L 180.3419 221.5128 C 178.1899 218.6923 174.6455 213.8206 174.6455 213.8206 L 167.0504 224.0769 L 194.8994 224.0769 L 183.5066 208.6924 L 183.5066 208.6924 Z" fill="#a7b7c9"/>
		<g opacity="0.251">
			<path d="M 86.9498 205.0703 C 86.9498 202.0219 87.9734 201 91.0271 201 L 137.0227 201 C 140.0764 201 141.1004 202.0219 141.1004 205.0703 L 141.1004 229.2373 C 141.1004 232.2859 140.0764 233.3077 137.0227 233.3077 L 91.0271 233.3077 C 87.9734 233.3077 86.9498 232.2859 86.9498 229.2373 L 86.9498 205.0703 Z" fill="#a7b7c9"/>
		</g>
		<path id="mountain-range3" d="M 116.5568 208.6924 L 111.7466 215.1025 L 115.4175 219.9744 L 113.3922 221.5128 C 111.2402 218.6923 107.6957 213.8206 107.6957 213.8206 L 100.1006 224.0769 L 127.9495 224.0769 L 116.5568 208.6924 L 116.5568 208.6924 Z" fill="#a7b7c9"/>
		<g opacity="0.251">
			<path d="M 20 205.0703 C 20 202.0219 21.0236 201 24.0773 201 L 70.0729 201 C 73.1265 201 74.1506 202.0219 74.1506 205.0703 L 74.1506 229.2373 C 74.1506 232.2859 73.1265 233.3077 70.0729 233.3077 L 24.0773 233.3077 C 21.0236 233.3077 20 232.2859 20 229.2373 L 20 205.0703 Z" fill="#a7b7c9"/>
		</g>
		<g>
			<path d="M 23 71.0703 C 23 68.0219 24.0236 67 27.0773 67 L 271.0729 67 C 274.1266 67 275.1506 68.0219 275.1506 71.0703 L 275.1506 182.2373 C 275.1506 185.2859 274.1266 186.3077 271.0729 186.3077 L 27.0773 186.3077 C 24.0236 186.3077 23 185.2859 23 182.2373 L 23 71.0703 Z" fill="#e9edf1"/>
		</g>
		<path id="mountain-range4" d="M 49.607 208.6924 L 44.7968 215.1025 L 48.4677 219.9744 L 46.4423 221.5128 C 44.2904 218.6923 40.7459 213.8206 40.7459 213.8206 L 33.1508 224.0769 L 60.9998 224.0769 L 49.607 208.6924 L 49.607 208.6924 Z" fill="#a7b7c9"/>
		<path id="mountain-range5" d="M 149.1639 113 L 141.0394 123.8333 L 147.2396 132.0667 L 143.8188 134.6667 C 140.1842 129.9 134.1978 121.6667 134.1978 121.6667 L 121.3697 139 L 168.4061 139 L 149.1639 113 L 149.1639 113 Z" fill="#a7b7c9"/>
	</g>
</svg>