<?xml version="1.0" standalone="no"?>
<!-- Generator: Adobe Fireworks 10, Export SVG Extension by Aaron Beall (http://fireworks.abeall.com) . Version: 0.6.1  -->
<!DOCTYPE svg PUBLIC "-//W3C//DTD SVG 1.1//EN" "http://www.w3.org/Graphics/SVG/1.1/DTD/svg11.dtd">
<svg id="Untitled-Page%201" viewBox="0 0 292 257" style="background-color:#ffffff00" version="1.1"
	xmlns="http://www.w3.org/2000/svg" xmlns:xlink="http://www.w3.org/1999/xlink" xml:space="preserve"
	x="0px" y="0px" width="292px" height="257px"
>
	<g id="Layer%201">
		<g>
			<path d="M 1.2753 10.5993 C 1.2753 4.6375 4.8617 1 10.7393 1 L 282.0353 1 C 287.9128 1 291.4996 4.6375 291.4996 10.5993 L 291.4996 246.4007 C 291.4996 252.3627 287.9128 256 282.0353 256 L 10.7393 256 C 4.8617 256 1.2753 252.3627 1.2753 246.4007 L 1.2753 10.5993 Z" stroke="#cacad0" stroke-width="1" fill="#ffffff"/>
		</g>
		<path id="Ellipse" d="M 24.2931 10 C 24.2931 8.3431 25.6373 7 27.2954 7 C 28.9536 7 30.2977 8.3431 30.2977 10 C 30.2977 11.6569 28.9536 13 27.2954 13 C 25.6373 13 24.2931 11.6569 24.2931 10 Z" fill="#dae0e6"/>
		<path id="Ellipse2" d="M 34.3009 10 C 34.3009 8.3431 35.645 7 37.3032 7 C 38.9613 7 40.3055 8.3431 40.3055 10 C 40.3055 11.6569 38.9613 13 37.3032 13 C 35.645 13 34.3009 11.6569 34.3009 10 Z" fill="#dae0e6"/>
		<path id="Ellipse3" d="M 44.3086 10 C 44.3086 8.3431 45.6528 7 47.3109 7 C 48.9691 7 50.3132 8.3431 50.3132 10 C 50.3132 11.6569 48.9691 13 47.3109 13 C 45.6528 13 44.3086 11.6569 44.3086 10 Z" fill="#dae0e6"/>
		<g>
			<path d="M 226.6351 102.0593 C 226.6351 100.9745 227.811 100.2097 229.4785 100.2097 L 257.2377 100.2097 C 258.9053 100.2097 260.0811 100.9745 260.0811 102.0593 L 260.0811 102.0593 C 260.0811 103.0807 258.9053 103.9088 257.2377 103.9088 L 229.4785 103.9088 C 227.811 103.9088 226.6351 103.0807 226.6351 102.0593 L 226.6351 102.0593 Z" fill="#a7b7c9"/>
		</g>
		<g>
			<path d="M 231.8379 107.9777 C 231.8379 107.1775 232.2416 106.868 233.2852 106.868 L 252.6877 106.868 C 253.7314 106.868 254.1351 107.1775 254.1351 107.9777 L 254.1351 107.9777 C 254.1351 108.5906 253.7314 109.0874 252.6877 109.0874 L 233.2852 109.0874 C 232.2416 109.0874 231.8379 108.5906 231.8379 107.9777 L 231.8379 107.9777 Z" fill="#e8ebf0"/>
		</g>
		<g opacity="0.251">
			<path d="M 216.973 64.9147 C 216.973 61.9827 217.9565 61 220.8904 61 L 265.0822 61 C 268.0161 61 269 61.9827 269 64.9147 L 269 88.1571 C 269 91.0892 268.0161 92.0719 265.0822 92.0719 L 220.8904 92.0719 C 217.9565 92.0719 216.973 91.0892 216.973 88.1571 L 216.973 64.9147 Z" fill="#a7b7c9"/>
		</g>
		<path id="Line" opacity="0.502" d="M 1.5004 19.5 L 291.7247 19.5 " stroke="#b9b9c8" stroke-width="1" fill="none"/>
		<path id="mountain-range" d="M 245.4189 68.3981 L 240.7973 74.5631 L 244.3243 79.2486 L 242.3784 80.7282 C 240.3107 78.0155 236.9053 73.3301 236.9053 73.3301 L 229.6081 83.1942 L 256.3649 83.1942 L 245.4189 68.3981 L 245.4189 68.3981 Z" fill="#a7b7c9"/>
		<g>
			<path d="M 162.3109 102.0593 C 162.3109 100.9745 163.4866 100.2097 165.1542 100.2097 L 192.9134 100.2097 C 194.581 100.2097 195.7567 100.9745 195.7567 102.0593 L 195.7567 102.0593 C 195.7567 103.0807 194.581 103.9088 192.9134 103.9088 L 165.1542 103.9088 C 163.4866 103.9088 162.3109 103.0807 162.3109 102.0593 L 162.3109 102.0593 Z" fill="#a7b7c9"/>
		</g>
		<g>
			<path d="M 167.5135 107.9777 C 167.5135 107.1775 167.9173 106.868 168.9609 106.868 L 188.3634 106.868 C 189.4071 106.868 189.8109 107.1775 189.8109 107.9777 L 189.8109 107.9777 C 189.8109 108.5906 189.4071 109.0874 188.3634 109.0874 L 168.9609 109.0874 C 167.9173 109.0874 167.5135 108.5906 167.5135 107.9777 L 167.5135 107.9777 Z" fill="#e8ebf0"/>
		</g>
		<g opacity="0.251">
			<path d="M 152.6486 64.9147 C 152.6486 61.9827 153.6321 61 156.566 61 L 200.7579 61 C 203.6918 61 204.6757 61.9827 204.6757 64.9147 L 204.6757 88.1571 C 204.6757 91.0892 203.6918 92.0719 200.7579 92.0719 L 156.566 92.0719 C 153.6321 92.0719 152.6486 91.0892 152.6486 88.1571 L 152.6486 64.9147 Z" fill="#a7b7c9"/>
		</g>
		<path id="mountain-range2" d="M 181.0945 68.3981 L 176.473 74.5631 L 179.9999 79.2486 L 178.054 80.7282 C 175.9864 78.0155 172.581 73.3301 172.581 73.3301 L 165.2838 83.1942 L 192.0405 83.1942 L 181.0945 68.3981 L 181.0945 68.3981 Z" fill="#a7b7c9"/>
		<g>
			<path d="M 97.9865 102.0593 C 97.9865 100.9745 99.1624 100.2097 100.8298 100.2097 L 128.5891 100.2097 C 130.2567 100.2097 131.4324 100.9745 131.4324 102.0593 L 131.4324 102.0593 C 131.4324 103.0807 130.2567 103.9088 128.5891 103.9088 L 100.8298 103.9088 C 99.1624 103.9088 97.9865 103.0807 97.9865 102.0593 L 97.9865 102.0593 Z" fill="#a7b7c9"/>
		</g>
		<g>
			<path d="M 103.1892 107.9777 C 103.1892 107.1775 103.5929 106.868 104.6366 106.868 L 124.0391 106.868 C 125.0827 106.868 125.4865 107.1775 125.4865 107.9777 L 125.4865 107.9777 C 125.4865 108.5906 125.0827 109.0874 124.0391 109.0874 L 104.6366 109.0874 C 103.5929 109.0874 103.1892 108.5906 103.1892 107.9777 L 103.1892 107.9777 Z" fill="#e8ebf0"/>
		</g>
		<g opacity="0.251">
			<path d="M 88.3243 64.9147 C 88.3243 61.9827 89.3078 61 92.2417 61 L 136.4336 61 C 139.3675 61 140.3514 61.9827 140.3514 64.9147 L 140.3514 88.1571 C 140.3514 91.0892 139.3675 92.0719 136.4336 92.0719 L 92.2417 92.0719 C 89.3078 92.0719 88.3243 91.0892 88.3243 88.1571 L 88.3243 64.9147 Z" fill="#a7b7c9"/>
		</g>
		<path id="mountain-range3" d="M 116.7702 68.3981 L 112.1487 74.5631 L 115.6756 79.2486 L 113.7297 80.7282 C 111.6621 78.0155 108.2567 73.3301 108.2567 73.3301 L 100.9594 83.1942 L 127.7162 83.1942 L 116.7702 68.3981 L 116.7702 68.3981 Z" fill="#a7b7c9"/>
		<g>
			<path d="M 33.6621 102.0593 C 33.6621 100.9745 34.838 100.2097 36.5056 100.2097 L 64.2647 100.2097 C 65.9323 100.2097 67.1081 100.9745 67.1081 102.0593 L 67.1081 102.0593 C 67.1081 103.0807 65.9323 103.9088 64.2647 103.9088 L 36.5056 103.9088 C 34.838 103.9088 33.6621 103.0807 33.6621 102.0593 L 33.6621 102.0593 Z" fill="#a7b7c9"/>
		</g>
		<g>
			<path d="M 38.8648 107.9777 C 38.8648 107.1775 39.2686 106.868 40.3122 106.868 L 59.7148 106.868 C 60.7585 106.868 61.1621 107.1775 61.1621 107.9777 L 61.1621 107.9777 C 61.1621 108.5906 60.7585 109.0874 59.7148 109.0874 L 40.3122 109.0874 C 39.2686 109.0874 38.8648 108.5906 38.8648 107.9777 L 38.8648 107.9777 Z" fill="#e8ebf0"/>
		</g>
		<g opacity="0.251">
			<path d="M 24 64.9147 C 24 61.9827 24.9835 61 27.9174 61 L 72.1092 61 C 75.0431 61 76.027 61.9827 76.027 64.9147 L 76.027 88.1571 C 76.027 91.0892 75.0431 92.0719 72.1092 92.0719 L 27.9174 92.0719 C 24.9835 92.0719 24 91.0892 24 88.1571 L 24 64.9147 Z" fill="#a7b7c9"/>
		</g>
		<path id="mountain-range4" d="M 52.4459 68.3981 L 47.8243 74.5631 L 51.3513 79.2486 L 49.4054 80.7282 C 47.3378 78.0155 43.9323 73.3301 43.9323 73.3301 L 36.6351 83.1942 L 63.3919 83.1942 L 52.4459 68.3981 L 52.4459 68.3981 Z" fill="#a7b7c9"/>
		<g>
			<path d="M 226.6351 165.5346 C 226.6351 164.45 227.811 163.6852 229.4785 163.6852 L 257.2377 163.6852 C 258.9053 163.6852 260.0811 164.45 260.0811 165.5346 L 260.0811 165.5346 C 260.0811 166.5562 258.9053 167.3842 257.2377 167.3842 L 229.4785 167.3842 C 227.811 167.3842 226.6351 166.5562 226.6351 165.5346 L 226.6351 165.5346 Z" fill="#a7b7c9"/>
		</g>
		<g>
			<path d="M 231.8379 171.4532 C 231.8379 170.653 232.2416 170.3434 233.2852 170.3434 L 252.6877 170.3434 C 253.7314 170.3434 254.1351 170.653 254.1351 171.4532 L 254.1351 171.4532 C 254.1351 172.066 253.7314 172.5629 252.6877 172.5629 L 233.2852 172.5629 C 232.2416 172.5629 231.8379 172.066 231.8379 171.4532 L 231.8379 171.4532 Z" fill="#e8ebf0"/>
		</g>
		<g opacity="0.251">
			<path d="M 216.973 128.3901 C 216.973 125.4582 217.9565 124.4754 220.8904 124.4754 L 265.0822 124.4754 C 268.0161 124.4754 269 125.4582 269 128.3901 L 269 151.6326 C 269 154.5646 268.0161 155.5474 265.0822 155.5474 L 220.8904 155.5474 C 217.9565 155.5474 216.973 154.5646 216.973 151.6326 L 216.973 128.3901 Z" fill="#a7b7c9"/>
		</g>
		<path id="mountain-range5" d="M 245.4189 131.8735 L 240.7973 138.0385 L 244.3243 142.724 L 242.3784 144.2036 C 240.3107 141.4909 236.9053 136.8055 236.9053 136.8055 L 229.6081 146.6696 L 256.3649 146.6696 L 245.4189 131.8735 L 245.4189 131.8735 Z" fill="#a7b7c9"/>
		<g>
			<path d="M 162.3109 165.5346 C 162.3109 164.45 163.4866 163.6852 165.1542 163.6852 L 192.9134 163.6852 C 194.581 163.6852 195.7567 164.45 195.7567 165.5346 L 195.7567 165.5346 C 195.7567 166.5562 194.581 167.3842 192.9134 167.3842 L 165.1542 167.3842 C 163.4866 167.3842 162.3109 166.5562 162.3109 165.5346 L 162.3109 165.5346 Z" fill="#a7b7c9"/>
		</g>
		<g>
			<path d="M 167.5135 171.4532 C 167.5135 170.653 167.9173 170.3434 168.9609 170.3434 L 188.3634 170.3434 C 189.4071 170.3434 189.8109 170.653 189.8109 171.4532 L 189.8109 171.4532 C 189.8109 172.066 189.4071 172.5629 188.3634 172.5629 L 168.9609 172.5629 C 167.9173 172.5629 167.5135 172.066 167.5135 171.4532 L 167.5135 171.4532 Z" fill="#e8ebf0"/>
		</g>
		<g opacity="0.251">
			<path d="M 152.6486 128.3901 C 152.6486 125.4582 153.6321 124.4754 156.566 124.4754 L 200.7579 124.4754 C 203.6918 124.4754 204.6757 125.4582 204.6757 128.3901 L 204.6757 151.6326 C 204.6757 154.5646 203.6918 155.5474 200.7579 155.5474 L 156.566 155.5474 C 153.6321 155.5474 152.6486 154.5646 152.6486 151.6326 L 152.6486 128.3901 Z" fill="#a7b7c9"/>
		</g>
		<path id="mountain-range6" d="M 181.0945 131.8735 L 176.473 138.0385 L 179.9999 142.724 L 178.054 144.2036 C 175.9864 141.4909 172.581 136.8055 172.581 136.8055 L 165.2838 146.6696 L 192.0405 146.6696 L 181.0945 131.8735 L 181.0945 131.8735 Z" fill="#a7b7c9"/>
		<g>
			<path d="M 97.9865 165.5346 C 97.9865 164.45 99.1624 163.6852 100.8298 163.6852 L 128.5891 163.6852 C 130.2567 163.6852 131.4324 164.45 131.4324 165.5346 L 131.4324 165.5346 C 131.4324 166.5562 130.2567 167.3842 128.5891 167.3842 L 100.8298 167.3842 C 99.1624 167.3842 97.9865 166.5562 97.9865 165.5346 L 97.9865 165.5346 Z" fill="#a7b7c9"/>
		</g>
		<g>
			<path d="M 103.1892 171.4532 C 103.1892 170.653 103.5929 170.3434 104.6366 170.3434 L 124.0391 170.3434 C 125.0827 170.3434 125.4865 170.653 125.4865 171.4532 L 125.4865 171.4532 C 125.4865 172.066 125.0827 172.5629 124.0391 172.5629 L 104.6366 172.5629 C 103.5929 172.5629 103.1892 172.066 103.1892 171.4532 L 103.1892 171.4532 Z" fill="#e8ebf0"/>
		</g>
		<g opacity="0.251">
			<path d="M 88.3243 128.3901 C 88.3243 125.4582 89.3078 124.4754 92.2417 124.4754 L 136.4336 124.4754 C 139.3675 124.4754 140.3514 125.4582 140.3514 128.3901 L 140.3514 151.6326 C 140.3514 154.5646 139.3675 155.5474 136.4336 155.5474 L 92.2417 155.5474 C 89.3078 155.5474 88.3243 154.5646 88.3243 151.6326 L 88.3243 128.3901 Z" fill="#a7b7c9"/>
		</g>
		<path id="mountain-range7" d="M 116.7702 131.8735 L 112.1487 138.0385 L 115.6756 142.724 L 113.7297 144.2036 C 111.6621 141.4909 108.2567 136.8055 108.2567 136.8055 L 100.9594 146.6696 L 127.7162 146.6696 L 116.7702 131.8735 L 116.7702 131.8735 Z" fill="#a7b7c9"/>
		<g>
			<path d="M 33.6621 165.5346 C 33.6621 164.45 34.838 163.6852 36.5056 163.6852 L 64.2647 163.6852 C 65.9323 163.6852 67.1081 164.45 67.1081 165.5346 L 67.1081 165.5346 C 67.1081 166.5562 65.9323 167.3842 64.2647 167.3842 L 36.5056 167.3842 C 34.838 167.3842 33.6621 166.5562 33.6621 165.5346 L 33.6621 165.5346 Z" fill="#a7b7c9"/>
		</g>
		<g>
			<path d="M 38.8648 171.4532 C 38.8648 170.653 39.2686 170.3434 40.3122 170.3434 L 59.7148 170.3434 C 60.7585 170.3434 61.1621 170.653 61.1621 171.4532 L 61.1621 171.4532 C 61.1621 172.066 60.7585 172.5629 59.7148 172.5629 L 40.3122 172.5629 C 39.2686 172.5629 38.8648 172.066 38.8648 171.4532 L 38.8648 171.4532 Z" fill="#e8ebf0"/>
		</g>
		<g opacity="0.251">
			<path d="M 24 128.3901 C 24 125.4582 24.9835 124.4754 27.9174 124.4754 L 72.1092 124.4754 C 75.0431 124.4754 76.027 125.4582 76.027 128.3901 L 76.027 151.6326 C 76.027 154.5646 75.0431 155.5474 72.1092 155.5474 L 27.9174 155.5474 C 24.9835 155.5474 24 154.5646 24 151.6326 L 24 128.3901 Z" fill="#a7b7c9"/>
		</g>
		<path id="mountain-range8" d="M 52.4459 131.8735 L 47.8243 138.0385 L 51.3513 142.724 L 49.4054 144.2036 C 47.3378 141.4909 43.9323 136.8055 43.9323 136.8055 L 36.6351 146.6696 L 63.3919 146.6696 L 52.4459 131.8735 L 52.4459 131.8735 Z" fill="#a7b7c9"/>
		<g>
			<path d="M 226.6351 229.9718 C 226.6351 228.8871 227.811 228.1223 229.4785 228.1223 L 257.2377 228.1223 C 258.9053 228.1223 260.0811 228.8871 260.0811 229.9718 L 260.0811 229.9718 C 260.0811 230.9933 258.9053 231.8214 257.2377 231.8214 L 229.4785 231.8214 C 227.811 231.8214 226.6351 230.9933 226.6351 229.9718 L 226.6351 229.9718 Z" fill="#a7b7c9"/>
		</g>
		<g>
			<path d="M 231.8379 235.8903 C 231.8379 235.0901 232.2416 234.7805 233.2852 234.7805 L 252.6877 234.7805 C 253.7314 234.7805 254.1351 235.0901 254.1351 235.8903 L 254.1351 235.8903 C 254.1351 236.5032 253.7314 237 252.6877 237 L 233.2852 237 C 232.2416 237 231.8379 236.5032 231.8379 235.8903 L 231.8379 235.8903 Z" fill="#e8ebf0"/>
		</g>
		<g opacity="0.251">
			<path d="M 216.973 192.8273 C 216.973 189.8953 217.9565 188.9126 220.8904 188.9126 L 265.0822 188.9126 C 268.0161 188.9126 269 189.8953 269 192.8273 L 269 216.0697 C 269 219.0017 268.0161 219.9845 265.0822 219.9845 L 220.8904 219.9845 C 217.9565 219.9845 216.973 219.0017 216.973 216.0697 L 216.973 192.8273 Z" fill="#a7b7c9"/>
		</g>
		<path id="mountain-range9" d="M 245.4189 196.3107 L 240.7973 202.4756 L 244.3243 207.1611 L 242.3784 208.6407 C 240.3107 205.9281 236.9053 201.2427 236.9053 201.2427 L 229.6081 211.1068 L 256.3649 211.1068 L 245.4189 196.3107 L 245.4189 196.3107 Z" fill="#a7b7c9"/>
		<g>
			<path d="M 162.3109 229.9718 C 162.3109 228.8871 163.4866 228.1223 165.1542 228.1223 L 192.9134 228.1223 C 194.581 228.1223 195.7567 228.8871 195.7567 229.9718 L 195.7567 229.9718 C 195.7567 230.9933 194.581 231.8214 192.9134 231.8214 L 165.1542 231.8214 C 163.4866 231.8214 162.3109 230.9933 162.3109 229.9718 L 162.3109 229.9718 Z" fill="#a7b7c9"/>
		</g>
		<g>
			<path d="M 167.5135 235.8903 C 167.5135 235.0901 167.9173 234.7805 168.9609 234.7805 L 188.3634 234.7805 C 189.4071 234.7805 189.8109 235.0901 189.8109 235.8903 L 189.8109 235.8903 C 189.8109 236.5032 189.4071 237 188.3634 237 L 168.9609 237 C 167.9173 237 167.5135 236.5032 167.5135 235.8903 L 167.5135 235.8903 Z" fill="#e8ebf0"/>
		</g>
		<g opacity="0.251">
			<path d="M 152.6486 192.8273 C 152.6486 189.8953 153.6321 188.9126 156.566 188.9126 L 200.7579 188.9126 C 203.6918 188.9126 204.6757 189.8953 204.6757 192.8273 L 204.6757 216.0697 C 204.6757 219.0017 203.6918 219.9845 200.7579 219.9845 L 156.566 219.9845 C 153.6321 219.9845 152.6486 219.0017 152.6486 216.0697 L 152.6486 192.8273 Z" fill="#a7b7c9"/>
		</g>
		<path id="mountain-range10" d="M 181.0945 196.3107 L 176.473 202.4756 L 179.9999 207.1611 L 178.054 208.6407 C 175.9864 205.9281 172.581 201.2427 172.581 201.2427 L 165.2838 211.1068 L 192.0405 211.1068 L 181.0945 196.3107 L 181.0945 196.3107 Z" fill="#a7b7c9"/>
		<g>
			<path d="M 97.9865 229.9718 C 97.9865 228.8871 99.1624 228.1223 100.8298 228.1223 L 128.5891 228.1223 C 130.2567 228.1223 131.4324 228.8871 131.4324 229.9718 L 131.4324 229.9718 C 131.4324 230.9933 130.2567 231.8214 128.5891 231.8214 L 100.8298 231.8214 C 99.1624 231.8214 97.9865 230.9933 97.9865 229.9718 L 97.9865 229.9718 Z" fill="#a7b7c9"/>
		</g>
		<g>
			<path d="M 103.1892 235.8903 C 103.1892 235.0901 103.5929 234.7805 104.6366 234.7805 L 124.0391 234.7805 C 125.0827 234.7805 125.4865 235.0901 125.4865 235.8903 L 125.4865 235.8903 C 125.4865 236.5032 125.0827 237 124.0391 237 L 104.6366 237 C 103.5929 237 103.1892 236.5032 103.1892 235.8903 L 103.1892 235.8903 Z" fill="#e8ebf0"/>
		</g>
		<g opacity="0.251">
			<path d="M 88.3243 192.8273 C 88.3243 189.8953 89.3078 188.9126 92.2417 188.9126 L 136.4336 188.9126 C 139.3675 188.9126 140.3514 189.8953 140.3514 192.8273 L 140.3514 216.0697 C 140.3514 219.0017 139.3675 219.9845 136.4336 219.9845 L 92.2417 219.9845 C 89.3078 219.9845 88.3243 219.0017 88.3243 216.0697 L 88.3243 192.8273 Z" fill="#a7b7c9"/>
		</g>
		<path id="mountain-range11" d="M 116.7702 196.3107 L 112.1487 202.4756 L 115.6756 207.1611 L 113.7297 208.6407 C 111.6621 205.9281 108.2567 201.2427 108.2567 201.2427 L 100.9594 211.1068 L 127.7162 211.1068 L 116.7702 196.3107 L 116.7702 196.3107 Z" fill="#a7b7c9"/>
		<g>
			<path d="M 33.6621 229.9718 C 33.6621 228.8871 34.838 228.1223 36.5056 228.1223 L 64.2647 228.1223 C 65.9323 228.1223 67.1081 228.8871 67.1081 229.9718 L 67.1081 229.9718 C 67.1081 230.9933 65.9323 231.8214 64.2647 231.8214 L 36.5056 231.8214 C 34.838 231.8214 33.6621 230.9933 33.6621 229.9718 L 33.6621 229.9718 Z" fill="#a7b7c9"/>
		</g>
		<g>
			<path d="M 38.8648 235.8903 C 38.8648 235.0901 39.2686 234.7805 40.3122 234.7805 L 59.7148 234.7805 C 60.7585 234.7805 61.1621 235.0901 61.1621 235.8903 L 61.1621 235.8903 C 61.1621 236.5032 60.7585 237 59.7148 237 L 40.3122 237 C 39.2686 237 38.8648 236.5032 38.8648 235.8903 L 38.8648 235.8903 Z" fill="#e8ebf0"/>
		</g>
		<g opacity="0.251">
			<path d="M 24 192.8273 C 24 189.8953 24.9835 188.9126 27.9174 188.9126 L 72.1092 188.9126 C 75.0431 188.9126 76.027 189.8953 76.027 192.8273 L 76.027 216.0697 C 76.027 219.0017 75.0431 219.9845 72.1092 219.9845 L 27.9174 219.9845 C 24.9835 219.9845 24 219.0017 24 216.0697 L 24 192.8273 Z" fill="#a7b7c9"/>
		</g>
		<path id="mountain-range12" d="M 52.4459 196.3107 L 47.8243 202.4756 L 51.3513 207.1611 L 49.4054 208.6407 C 47.3378 205.9281 43.9323 201.2427 43.9323 201.2427 L 36.6351 211.1068 L 63.3919 211.1068 L 52.4459 196.3107 L 52.4459 196.3107 Z" fill="#a7b7c9"/>
		<g>
			<path d="M 100.4189 37 C 100.4189 34.2385 103.4557 32 107.2017 32 L 187.416 32 C 191.162 32 194.1987 34.2385 194.1987 37 L 194.1987 37 C 194.1987 39.7615 191.162 42 187.416 42 L 107.2017 42 C 103.4557 42 100.4189 39.7615 100.4189 37 L 100.4189 37 Z" fill="#8eb2fa"/>
		</g>
	</g>
</svg>