<?xml version="1.0" standalone="no"?>
<!-- Generator: Adobe Fireworks 10, Export SVG Extension by Aaron Beall (http://fireworks.abeall.com) . Version: 0.6.1  -->
<!DOCTYPE svg PUBLIC "-//W3C//DTD SVG 1.1//EN" "http://www.w3.org/Graphics/SVG/1.1/DTD/svg11.dtd">
<svg id="Untitled-Page%201" viewBox="0 0 292 257" style="background-color:#ffffff00" version="1.1"
	xmlns="http://www.w3.org/2000/svg" xmlns:xlink="http://www.w3.org/1999/xlink" xml:space="preserve"
	x="0px" y="0px" width="292px" height="257px"
>
	<g id="Layer%201">
		<g>
			<path d="M 1.2754 10.5993 C 1.2754 4.6375 4.8617 1 10.7393 1 L 282.0353 1 C 287.9128 1 291.4996 4.6375 291.4996 10.5993 L 291.4996 246.4007 C 291.4996 252.3627 287.9128 256 282.0353 256 L 10.7393 256 C 4.8617 256 1.2754 252.3627 1.2754 246.4007 L 1.2754 10.5993 Z" stroke="#cacad0" stroke-width="1" fill="#ffffff"/>
		</g>
		<path id="Ellipse" d="M 24.2931 10 C 24.2931 8.3431 25.6373 7 27.2954 7 C 28.9536 7 30.2977 8.3431 30.2977 10 C 30.2977 11.6569 28.9536 13 27.2954 13 C 25.6373 13 24.2931 11.6569 24.2931 10 Z" fill="#dae0e6"/>
		<path id="Ellipse2" d="M 34.3009 10 C 34.3009 8.3431 35.645 7 37.3032 7 C 38.9613 7 40.3055 8.3431 40.3055 10 C 40.3055 11.6569 38.9613 13 37.3032 13 C 35.645 13 34.3009 11.6569 34.3009 10 Z" fill="#dae0e6"/>
		<path id="Ellipse3" d="M 44.3086 10 C 44.3086 8.3431 45.6528 7 47.3109 7 C 48.969 7 50.3132 8.3431 50.3132 10 C 50.3132 11.6569 48.969 13 47.3109 13 C 45.6528 13 44.3086 11.6569 44.3086 10 Z" fill="#dae0e6"/>
		<path id="Line" opacity="0.502" d="M 1.5004 19.5 L 291.7246 19.5 " stroke="#b9b9c8" stroke-width="1" fill="none"/>
		<g>
			<path d="M 216.4189 50 C 216.4189 47.2385 219.4558 45 223.2017 45 L 264.416 45 C 268.1621 45 271.1989 47.2385 271.1989 50 L 271.1989 50 C 271.1989 52.7615 268.1621 55.0001 264.416 55.0001 L 223.2017 55.0001 C 219.4558 55.0001 216.4189 52.7615 216.4189 50.0001 L 216.4189 50 Z" fill="#8eb2fa"/>
		</g>
		<g opacity="0.502">
			<path d="M 24 46.128 C 24 43.7853 24.772 43 27.075 43 L 88.9248 43 C 91.2277 43 92 43.7853 92 46.128 L 92 108.8721 C 92 111.2147 91.2277 112 88.9248 112 L 27.075 112 C 24.772 112 24 111.2147 24 108.8721 L 24 46.128 Z" stroke="#a7b7c9" stroke-width="1" fill="none"/>
		</g>
		<g>
			<path d="M 57.4066 57 C 57.4066 56.1622 58.3125 55.5714 59.5973 55.5714 L 80.9836 55.5714 C 82.2684 55.5714 83.1743 56.1622 83.1743 57 L 83.1743 57 C 83.1743 57.789 82.2684 58.4286 80.9836 58.4286 L 59.5973 58.4286 C 58.3125 58.4286 57.4066 57.789 57.4066 57 L 57.4066 57 Z" fill="#a7b7c9"/>
		</g>
		<g opacity="0.749">
			<path d="M 32.45 68.8571 C 32.45 68.2391 32.5615 68 32.8497 68 L 82.347 68 C 82.6354 68 82.7469 68.2391 82.7469 68.8571 L 82.7469 68.8571 C 82.7469 69.3305 82.6354 69.7143 82.347 69.7143 L 32.8497 69.7143 C 32.5615 69.7143 32.45 69.3305 32.45 68.8571 L 32.45 68.8571 Z" fill="#c8d2dd"/>
		</g>
		<g opacity="0.749">
			<path d="M 32.45 74.8571 C 32.45 74.2391 32.5615 74 32.8497 74 L 82.347 74 C 82.6354 74 82.7469 74.2391 82.7469 74.8571 L 82.7469 74.8571 C 82.7469 75.3305 82.6354 75.7143 82.347 75.7143 L 32.8497 75.7143 C 32.5615 75.7143 32.45 75.3305 32.45 74.8571 L 32.45 74.8571 Z" fill="#c8d2dd"/>
		</g>
		<g opacity="0.749">
			<path d="M 32.45 80.8571 C 32.45 80.2391 32.5615 80 32.8497 80 L 82.347 80 C 82.6354 80 82.7469 80.2391 82.7469 80.8571 L 82.7469 80.8571 C 82.7469 81.3305 82.6354 81.7143 82.347 81.7143 L 32.8497 81.7143 C 32.5615 81.7143 32.45 81.3305 32.45 80.8571 L 32.45 80.8571 Z" fill="#c8d2dd"/>
		</g>
		<g opacity="0.749">
			<path d="M 32.45 86.8571 C 32.45 86.2391 32.5615 86 32.8497 86 L 82.347 86 C 82.6354 86 82.7469 86.2391 82.7469 86.8571 L 82.7469 86.8571 C 82.7469 87.3305 82.6354 87.7143 82.347 87.7143 L 32.8497 87.7143 C 32.5615 87.7143 32.45 87.3305 32.45 86.8571 L 32.45 86.8571 Z" fill="#c8d2dd"/>
		</g>
		<g opacity="0.749">
			<path d="M 32.45 92.8571 C 32.45 92.2391 32.5615 92 32.8497 92 L 82.347 92 C 82.6354 92 82.7469 92.2391 82.7469 92.8571 L 82.7469 92.8571 C 82.7469 93.3305 82.6354 93.7143 82.347 93.7143 L 32.8497 93.7143 C 32.5615 93.7143 32.45 93.3305 32.45 92.8571 L 32.45 92.8571 Z" fill="#c8d2dd"/>
		</g>
		<g opacity="0.749">
			<path d="M 52 99 C 52 98.279 52.0665 98 52.2384 98 L 81.7615 98 C 81.9335 98 82 98.279 82 99 L 82 99 C 82 99.5522 81.9335 100 81.7615 100 L 52.2384 100 C 52.0665 100 52 99.5522 52 99 L 52 99 Z" fill="#c8d2dd"/>
		</g>
		<g opacity="0.502">
			<path d="M 24 129.1279 C 24 126.7853 24.772 126 27.075 126 L 88.9248 126 C 91.2277 126 92 126.7853 92 129.1279 L 92 191.8721 C 92 194.2147 91.2277 195 88.9248 195 L 27.075 195 C 24.772 195 24 194.2147 24 191.8721 L 24 129.1279 Z" stroke="#a7b7c9" stroke-width="1" fill="none"/>
		</g>
		<g>
			<path d="M 57.4066 140 C 57.4066 139.1622 58.3125 138.5714 59.5973 138.5714 L 80.9836 138.5714 C 82.2684 138.5714 83.1743 139.1622 83.1743 140 L 83.1743 140 C 83.1743 140.789 82.2684 141.4286 80.9836 141.4286 L 59.5973 141.4286 C 58.3125 141.4286 57.4066 140.789 57.4066 140 L 57.4066 140 Z" fill="#a7b7c9"/>
		</g>
		<g opacity="0.749">
			<path d="M 32.45 151.8572 C 32.45 151.2391 32.5615 151 32.8497 151 L 82.347 151 C 82.6354 151 82.7469 151.2391 82.7469 151.8572 L 82.7469 151.8572 C 82.7469 152.3305 82.6354 152.7143 82.347 152.7143 L 32.8497 152.7143 C 32.5615 152.7143 32.45 152.3305 32.45 151.8572 L 32.45 151.8572 Z" fill="#c8d2dd"/>
		</g>
		<g opacity="0.749">
			<path d="M 32.45 157.8572 C 32.45 157.2391 32.5615 157 32.8497 157 L 82.347 157 C 82.6354 157 82.7469 157.2391 82.7469 157.8572 L 82.7469 157.8572 C 82.7469 158.3305 82.6354 158.7143 82.347 158.7143 L 32.8497 158.7143 C 32.5615 158.7143 32.45 158.3305 32.45 157.8572 L 32.45 157.8572 Z" fill="#c8d2dd"/>
		</g>
		<g opacity="0.749">
			<path d="M 32.45 163.8572 C 32.45 163.2391 32.5615 163 32.8497 163 L 82.347 163 C 82.6354 163 82.7469 163.2391 82.7469 163.8572 L 82.7469 163.8572 C 82.7469 164.3305 82.6354 164.7143 82.347 164.7143 L 32.8497 164.7143 C 32.5615 164.7143 32.45 164.3305 32.45 163.8572 L 32.45 163.8572 Z" fill="#c8d2dd"/>
		</g>
		<g opacity="0.749">
			<path d="M 32.45 169.8572 C 32.45 169.2391 32.5615 169 32.8497 169 L 82.347 169 C 82.6354 169 82.7469 169.2391 82.7469 169.8572 L 82.7469 169.8572 C 82.7469 170.3305 82.6354 170.7143 82.347 170.7143 L 32.8497 170.7143 C 32.5615 170.7143 32.45 170.3305 32.45 169.8572 L 32.45 169.8572 Z" fill="#c8d2dd"/>
		</g>
		<g opacity="0.749">
			<path d="M 32.45 175.8572 C 32.45 175.2391 32.5615 175 32.8497 175 L 82.347 175 C 82.6354 175 82.7469 175.2391 82.7469 175.8572 L 82.7469 175.8572 C 82.7469 176.3305 82.6354 176.7143 82.347 176.7143 L 32.8497 176.7143 C 32.5615 176.7143 32.45 176.3305 32.45 175.8572 L 32.45 175.8572 Z" fill="#c8d2dd"/>
		</g>
		<g opacity="0.749">
			<path d="M 52 182 C 52 181.279 52.0665 181 52.2384 181 L 81.7615 181 C 81.9335 181 82 181.279 82 182 L 82 182 C 82 182.5522 81.9335 183 81.7615 183 L 52.2384 183 C 52.0665 183 52 182.5522 52 182 L 52 182 Z" fill="#c8d2dd"/>
		</g>
		<g opacity="0.251">
			<path d="M 116 69.7121 C 116 66.183 117.3313 65 121.303 65 L 265.6964 65 C 269.6682 65 271 66.183 271 69.7121 L 271 120.2879 C 271 123.817 269.6682 125 265.6964 125 L 121.303 125 C 117.3313 125 116 123.817 116 120.2879 L 116 69.7121 Z" fill="#a7b7c9"/>
		</g>
		<path id="mountain-range" d="M 196.4091 82 L 188.9818 91.9999 L 194.6499 99.6 L 191.5227 102.0001 C 188.2 97.6 182.7272 90.0001 182.7272 90.0001 L 171 106 L 214 106 L 196.4091 82 L 196.4091 82 Z" fill="#a7b7c9"/>
		<g>
			<path d="M 244 137 C 245.0613 137 246.2104 135.9602 246.2104 135 L 267.7896 135 C 267.7896 136.249 268.6196 137 270 137 L 270 137 C 268.6196 137 267.7896 137.751 267.7896 139 L 246.2104 139 C 246.2104 138.0398 245.0613 137 244 137 L 244 137 Z" fill="#a7b7c9"/>
		</g>
		<g opacity="0.749">
			<path d="M 116 145.9999 C 116 145.279 116.3436 145 117.2319 145 L 269.7678 145 C 270.6561 145 271 145.279 271 145.9999 L 271 145.9999 C 271 146.5522 270.6561 147 269.7678 147 L 117.2319 147 C 116.3436 147 116 146.5522 116 145.9999 L 116 145.9999 Z" fill="#c8d2dd"/>
		</g>
		<g opacity="0.749">
			<path d="M 220.45 151.8572 C 220.45 151.2391 220.5615 151 220.8497 151 L 270.347 151 C 270.6354 151 270.7469 151.2391 270.7469 151.8572 L 270.7469 151.8572 C 270.7469 152.3305 270.6354 152.7143 270.347 152.7143 L 220.8497 152.7143 C 220.5615 152.7143 220.45 152.3305 220.45 151.8572 L 220.45 151.8572 Z" fill="#c8d2dd"/>
		</g>
		<g opacity="0.749">
			<path d="M 116 172.9999 C 116 172.279 116.3436 172 117.2319 172 L 269.7678 172 C 270.6561 172 271 172.279 271 172.9999 L 271 172.9999 C 271 173.5522 270.6561 174 269.7678 174 L 117.2319 174 C 116.3436 174 116 173.5522 116 172.9999 L 116 172.9999 Z" fill="#c8d2dd"/>
		</g>
		<g opacity="0.749">
			<path d="M 116 166.9999 C 116 166.279 116.3436 166 117.2319 166 L 269.7678 166 C 270.6561 166 271 166.279 271 166.9999 L 271 166.9999 C 271 167.5522 270.6561 168 269.7678 168 L 117.2319 168 C 116.3436 168 116 167.5522 116 166.9999 L 116 166.9999 Z" fill="#c8d2dd"/>
		</g>
		<g opacity="0.749">
			<path d="M 220.45 184.8572 C 220.45 184.2391 220.5615 184 220.8497 184 L 270.347 184 C 270.6354 184 270.7469 184.2391 270.7469 184.8572 L 270.7469 184.8572 C 270.7469 185.3305 270.6354 185.7143 270.347 185.7143 L 220.8497 185.7143 C 220.5615 185.7143 220.45 185.3305 220.45 184.8572 L 220.45 184.8572 Z" fill="#c8d2dd"/>
		</g>
		<g opacity="0.749">
			<path d="M 116 178.9999 C 116 178.279 116.3436 178 117.2319 178 L 269.7678 178 C 270.6561 178 271 178.279 271 178.9999 L 271 178.9999 C 271 179.5522 270.6561 180 269.7678 180 L 117.2319 180 C 116.3436 180 116 179.5522 116 178.9999 L 116 178.9999 Z" fill="#c8d2dd"/>
		</g>
	</g>
</svg>