<?xml version="1.0" standalone="no"?>
<!-- Generator: Adobe Fireworks 10, Export SVG Extension by Aaron Beall (http://fireworks.abeall.com) . Version: 0.6.1  -->
<!DOCTYPE svg PUBLIC "-//W3C//DTD SVG 1.1//EN" "http://www.w3.org/Graphics/SVG/1.1/DTD/svg11.dtd">
<svg id="Untitled-Page%201" viewBox="0 0 292 257" style="background-color:#ffffff00" version="1.1"
	xmlns="http://www.w3.org/2000/svg" xmlns:xlink="http://www.w3.org/1999/xlink" xml:space="preserve"
	x="0px" y="0px" width="292px" height="257px"
>
	<g id="Layer%201">
		<g>
			<path d="M 1.2754 10.5993 C 1.2754 4.6375 4.8617 1 10.7393 1 L 282.0353 1 C 287.9128 1 291.4996 4.6375 291.4996 10.5993 L 291.4996 246.4007 C 291.4996 252.3627 287.9128 256 282.0353 256 L 10.7393 256 C 4.8617 256 1.2754 252.3627 1.2754 246.4007 L 1.2754 10.5993 Z" stroke="#cacad0" stroke-width="1" fill="#ffffff"/>
		</g>
		<path id="Ellipse" d="M 24.2931 10 C 24.2931 8.3431 25.6373 7 27.2954 7 C 28.9536 7 30.2977 8.3431 30.2977 10 C 30.2977 11.6569 28.9536 13 27.2954 13 C 25.6373 13 24.2931 11.6569 24.2931 10 Z" fill="#dae0e6"/>
		<path id="Ellipse2" d="M 34.3009 10 C 34.3009 8.3431 35.645 7 37.3032 7 C 38.9613 7 40.3055 8.3431 40.3055 10 C 40.3055 11.6569 38.9613 13 37.3032 13 C 35.645 13 34.3009 11.6569 34.3009 10 Z" fill="#dae0e6"/>
		<path id="Ellipse3" d="M 44.3086 10 C 44.3086 8.3431 45.6528 7 47.3109 7 C 48.969 7 50.3132 8.3431 50.3132 10 C 50.3132 11.6569 48.969 13 47.3109 13 C 45.6528 13 44.3086 11.6569 44.3086 10 Z" fill="#dae0e6"/>
		<path id="Line" opacity="0.502" d="M 1.5004 19.5 L 291.7246 19.5 " stroke="#b9b9c8" stroke-width="1" fill="none"/>
		<g>
			<path d="M 207.5284 139.5 C 207.5284 138.0338 208.6346 137 210.2034 137 L 228.9755 137 C 230.5443 137 231.6505 138.0338 231.6505 139.5 L 231.6505 139.5 C 231.6505 140.8807 230.5443 142 228.9755 142 L 210.2034 142 C 208.6346 142 207.5284 140.8807 207.5284 139.5 L 207.5284 139.5 Z" fill="#a7b7c9"/>
		</g>
		<g opacity="0.749">
			<path d="M 60 76.5 C 60 75.4184 60.3814 75 61.3671 75 L 230.6329 75 C 231.6186 75 232 75.4184 232 76.5 L 232 76.5 C 232 77.3284 231.6186 78 230.6329 78 L 61.3671 78 C 60.3814 78 60 77.3284 60 76.5 L 60 76.5 Z" fill="#c8d2dd"/>
		</g>
		<g opacity="0.749">
			<path d="M 60 86.5 C 60 85.4184 60.3814 85 61.3671 85 L 230.6329 85 C 231.6186 85 232 85.4184 232 86.5 L 232 86.5 C 232 87.3284 231.6186 88 230.6329 88 L 61.3671 88 C 60.3814 88 60 87.3284 60 86.5 L 60 86.5 Z" fill="#c8d2dd"/>
		</g>
		<g opacity="0.749">
			<path d="M 60 96.5 C 60 95.4184 60.3814 95 61.3671 95 L 230.6329 95 C 231.6186 95 232 95.4184 232 96.5 L 232 96.5 C 232 97.3284 231.6186 98 230.6329 98 L 61.3671 98 C 60.3814 98 60 97.3284 60 96.5 L 60 96.5 Z" fill="#c8d2dd"/>
		</g>
		<g opacity="0.749">
			<path d="M 129.9187 106.5 C 129.9187 105.4184 130.1451 105 130.7301 105 L 231.1886 105 C 231.7737 105 232 105.4184 232 106.5 L 232 106.5 C 232 107.3284 231.7737 108 231.1886 108 L 130.7301 108 C 130.1451 108 129.9187 107.3284 129.9187 106.5 L 129.9187 106.5 Z" fill="#c8d2dd"/>
		</g>
		<g opacity="0.749">
			<path d="M 60 183.5 C 60 182.4184 60.3814 182 61.3671 182 L 230.6329 182 C 231.6186 182 232 182.4184 232 183.5 L 232 183.5 C 232 184.3284 231.6186 185 230.6329 185 L 61.3671 185 C 60.3814 185 60 184.3284 60 183.5 L 60 183.5 Z" fill="#c8d2dd"/>
		</g>
		<g opacity="0.749">
			<path d="M 60 193.5 C 60 192.4184 60.3814 192 61.3671 192 L 230.6329 192 C 231.6186 192 232 192.4184 232 193.5 L 232 193.5 C 232 194.3284 231.6186 195 230.6329 195 L 61.3671 195 C 60.3814 195 60 194.3284 60 193.5 L 60 193.5 Z" fill="#c8d2dd"/>
		</g>
		<g opacity="0.749">
			<path d="M 129.9187 203.5 C 129.9187 202.4184 130.1451 202 130.7301 202 L 231.1886 202 C 231.7737 202 232 202.4184 232 203.5 L 232 203.5 C 232 204.3284 231.7737 205 231.1886 205 L 130.7301 205 C 130.1451 205 129.9187 204.3284 129.9187 203.5 L 129.9187 203.5 Z" fill="#c8d2dd"/>
		</g>
		<g opacity="0.749">
			<path d="M 60 153.5 C 60 152.4184 60.3814 152 61.3671 152 L 230.6329 152 C 231.6186 152 232 152.4184 232 153.5 L 232 153.5 C 232 154.3284 231.6186 155 230.6329 155 L 61.3671 155 C 60.3814 155 60 154.3284 60 153.5 L 60 153.5 Z" fill="#c8d2dd"/>
		</g>
		<g opacity="0.749">
			<path d="M 129.9187 163.5 C 129.9187 162.4184 130.1451 162 130.7301 162 L 231.1886 162 C 231.7737 162 232 162.4184 232 163.5 L 232 163.5 C 232 164.3284 231.7737 165 231.1886 165 L 130.7301 165 C 130.1451 165 129.9187 164.3284 129.9187 163.5 L 129.9187 163.5 Z" fill="#c8d2dd"/>
		</g>
		<g>
			<path d="M 140.4189 56 C 140.4189 53.2385 143.4557 51 147.2017 51 L 227.416 51 C 231.162 51 234.1987 53.2385 234.1987 56 L 234.1987 56 C 234.1987 58.7615 231.162 61 227.416 61 L 147.2017 61 C 143.4557 61 140.4189 58.7615 140.4189 56 L 140.4189 56 Z" fill="#8eb2fa"/>
		</g>
	</g>
</svg>