<?xml version="1.0" standalone="no"?>
<!-- Generator: Adobe Fireworks 10, Export SVG Extension by Aaron Beall (http://fireworks.abeall.com) . Version: 0.6.1  -->
<!DOCTYPE svg PUBLIC "-//W3C//DTD SVG 1.1//EN" "http://www.w3.org/Graphics/SVG/1.1/DTD/svg11.dtd">
<svg id="Untitled-Page%201" viewBox="0 0 292 257" style="background-color:#ffffff00" version="1.1"
	xmlns="http://www.w3.org/2000/svg" xmlns:xlink="http://www.w3.org/1999/xlink" xml:space="preserve"
	x="0px" y="0px" width="292px" height="257px"
>
	<g id="Layer%201">
		<g id="refine-svg2">
			<path d="M 1.2753 10.5993 C 1.2753 4.6375 4.8617 1 10.7393 1 L 282.0353 1 C 287.9128 1 291.4996 4.6375 291.4996 10.5993 L 291.4996 246.4007 C 291.4996 252.3627 287.9128 256 282.0353 256 L 10.7393 256 C 4.8617 256 1.2753 252.3627 1.2753 246.4007 L 1.2753 10.5993 L 1.2753 10.5993 Z" stroke="#cacad0" stroke-width="1" fill="#ffffff"/>
			<path id="Ellipse" d="M 24.2931 10 C 24.2931 8.3431 25.6373 7 27.2954 7 C 28.9536 7 30.2978 8.3431 30.2978 10 C 30.2978 11.6569 28.9536 13 27.2954 13 C 25.6373 13 24.2931 11.6569 24.2931 10 L 24.2931 10 Z" fill="#dae0e6"/>
			<path id="Ellipse2" d="M 34.3009 10 C 34.3009 8.3431 35.6451 7 37.3032 7 C 38.9613 7 40.3055 8.3431 40.3055 10 C 40.3055 11.6569 38.9613 13 37.3032 13 C 35.6451 13 34.3009 11.6569 34.3009 10 L 34.3009 10 Z" fill="#dae0e6"/>
			<path id="Ellipse3" d="M 44.3086 10 C 44.3086 8.3431 45.6528 7 47.3109 7 C 48.9691 7 50.3132 8.3431 50.3132 10 C 50.3132 11.6569 48.9691 13 47.3109 13 C 45.6528 13 44.3086 11.6569 44.3086 10 L 44.3086 10 Z" fill="#dae0e6"/>
			<path opacity="0.749" d="M 23 83.5 C 23 82.4184 23.5499 82 24.9712 82 L 269.0287 82 C 270.45 82 271 82.4184 271 83.5 L 271 83.5 C 271 84.3284 270.45 85 269.0287 85 L 24.9712 85 C 23.5499 85 23 84.3284 23 83.5 L 23 83.5 L 23 83.5 Z" fill="#c8d2dd"/>
			<path opacity="0.749" d="M 23 93.5 C 23 92.4184 23.5499 92 24.9712 92 L 269.0287 92 C 270.45 92 271 92.4184 271 93.5 L 271 93.5 C 271 94.3284 270.45 95 269.0287 95 L 24.9712 95 C 23.5499 95 23 94.3284 23 93.5 L 23 93.5 L 23 93.5 Z" fill="#c8d2dd"/>
			<path opacity="0.749" d="M 23 103.5 C 23 102.4184 23.5499 102 24.9712 102 L 269.0287 102 C 270.45 102 271 102.4184 271 103.5 L 271 103.5 C 271 104.3284 270.45 105 269.0287 105 L 24.9712 105 C 23.5499 105 23 104.3284 23 103.5 L 23 103.5 L 23 103.5 Z" fill="#c8d2dd"/>
			<path opacity="0.749" d="M 123.813 113.5 C 123.813 112.4184 124.1394 112 124.9829 112 L 269.8301 112 C 270.6737 112 271 112.4184 271 113.5 L 271 113.5 C 271 114.3284 270.6737 115 269.8301 115 L 124.9829 115 C 124.1394 115 123.813 114.3284 123.813 113.5 L 123.813 113.5 L 123.813 113.5 Z" fill="#c8d2dd"/>
			<path d="M 176.4189 62 C 176.4189 59.2385 179.4557 57 183.2017 57 L 263.416 57 C 267.162 57 270.1987 59.2385 270.1987 62 L 270.1987 62 C 270.1987 64.7615 267.162 67 263.416 67 L 183.2017 67 C 179.4557 67 176.4189 64.7615 176.4189 62 L 176.4189 62 L 176.4189 62 Z" fill="#8eb2fa"/>
			<path id="Line" opacity="0.502" d="M 1.5004 19.5 L 291.7247 19.5 " stroke="#b9b9c8" stroke-width="1" fill="none"/>
			<path d="M 213 210.5 C 213 209.0338 214.582 208 216.8257 208 L 254.1743 208 C 256.418 208 258 209.0338 258 210.5 L 258 210.5 C 258 211.8807 256.418 213 254.1743 213 L 216.8257 213 C 214.582 213 213 211.8807 213 210.5 L 213 210.5 L 213 210.5 Z" fill="#a7b7c9"/>
			<path d="M 220 218.5 C 220 217.4184 220.5432 217 221.9474 217 L 248.0526 217 C 249.4568 217 250 217.4184 250 218.5 L 250 218.5 C 250 219.3285 249.4568 220 248.0526 220 L 221.9474 220 C 220.5432 220 220 219.3284 220 218.5 L 220 218.5 L 220 218.5 Z" fill="#e8ebf0"/>
			<path d="M 33 210.5 C 33 209.0338 34.582 208 36.8257 208 L 74.1743 208 C 76.418 208 78 209.0338 78 210.5 L 78 210.5 C 78 211.8807 76.418 213 74.1743 213 L 36.8257 213 C 34.582 213 33 211.8807 33 210.5 L 33 210.5 L 33 210.5 Z" fill="#a7b7c9"/>
			<path d="M 40 218.5 C 40 217.4184 40.5432 217 41.9474 217 L 68.0526 217 C 69.4568 217 70 217.4184 70 218.5 L 70 218.5 C 70 219.3285 69.4568 220 68.0526 220 L 41.9474 220 C 40.5432 220 40 219.3284 40 218.5 L 40 218.5 L 40 218.5 Z" fill="#e8ebf0"/>
			<path opacity="0.251" d="M 110 160.2915 C 110 156.3284 111.3232 155 115.2706 155 L 174.7288 155 C 178.6763 155 180 156.3284 180 160.2915 L 180 191.7084 C 180 195.6717 178.6763 197 174.7288 197 L 115.2706 197 C 111.3232 197 110 195.6717 110 191.7084 L 110 160.2915 L 110 160.2915 Z" fill="#a7b7c9"/>
			<path d="M 123 210.5 C 123 209.0338 124.582 208 126.8257 208 L 164.1743 208 C 166.418 208 168 209.0338 168 210.5 L 168 210.5 C 168 211.8807 166.418 213 164.1743 213 L 126.8257 213 C 124.582 213 123 211.8807 123 210.5 L 123 210.5 L 123 210.5 Z" fill="#a7b7c9"/>
			<path d="M 130 218.5 C 130 217.4184 130.5432 217 131.9474 217 L 158.0526 217 C 159.4568 217 160 217.4184 160 218.5 L 160 218.5 C 160 219.3285 159.4568 220 158.0526 220 L 131.9474 220 C 130.5432 220 130 219.3284 130 218.5 L 130 218.5 L 130 218.5 Z" fill="#e8ebf0"/>
			<path opacity="0.251" d="M 200 160.2915 C 200 156.3284 201.3232 155 205.2706 155 L 264.7288 155 C 268.6763 155 270 156.3284 270 160.2915 L 270 191.7084 C 270 195.6717 268.6763 197 264.7288 197 L 205.2706 197 C 201.3232 197 200 195.6717 200 191.7084 L 200 160.2915 L 200 160.2915 Z" fill="#a7b7c9"/>
			<path opacity="0.251" d="M 22 160.2915 C 22 156.3284 23.3232 155 27.2706 155 L 86.7288 155 C 90.6763 155 92 156.3284 92 160.2915 L 92 191.7084 C 92 195.6717 90.6763 197 86.7288 197 L 27.2706 197 C 23.3232 197 22 195.6717 22 191.7084 L 22 160.2915 L 22 160.2915 Z" fill="#a7b7c9"/>
			<path id="mountain-range" d="M 60.2727 165 L 54.0546 173.3333 L 58.7999 179.6666 L 56.1818 181.6667 C 53.4 178 48.8181 171.6667 48.8181 171.6667 L 39 185 L 75 185 L 60.2727 165 L 60.2727 165 L 60.2727 165 Z" fill="#a7b7c9"/>
			<path id="mountain-range2" d="M 148.2727 165 L 142.0546 173.3333 L 146.7999 179.6666 L 144.1818 181.6667 C 141.4 178 136.8181 171.6667 136.8181 171.6667 L 127 185 L 163 185 L 148.2727 165 L 148.2727 165 L 148.2727 165 Z" fill="#a7b7c9"/>
			<path id="mountain-range3" d="M 238.2727 165 L 232.0546 173.3333 L 236.7999 179.6666 L 234.1818 181.6667 C 231.4 178 226.8181 171.6667 226.8181 171.6667 L 217 185 L 253 185 L 238.2727 165 L 238.2727 165 L 238.2727 165 Z" fill="#a7b7c9"/>
		</g>
	</g>
</svg>