<?xml version="1.0" standalone="no"?>
<!-- Generator: Adobe Fireworks 10, Export SVG Extension by Aaron Beall (http://fireworks.abeall.com) . Version: 0.6.1  -->
<!DOCTYPE svg PUBLIC "-//W3C//DTD SVG 1.1//EN" "http://www.w3.org/Graphics/SVG/1.1/DTD/svg11.dtd">
<svg id="Untitled-Page%201" viewBox="0 0 294 259" style="background-color:#ffffff00" version="1.1"
	xmlns="http://www.w3.org/2000/svg" xmlns:xlink="http://www.w3.org/1999/xlink" xml:space="preserve"
	x="0px" y="0px" width="294px" height="259px"
>
	<g id="Layer%201">
		<g>
			<path d="M 2 11.5993 C 2 5.6375 5.5864 2 11.464 2 L 282.7599 2 C 288.6375 2 292.2243 5.6375 292.2243 11.5993 L 292.2243 247.4007 C 292.2243 253.3627 288.6375 257 282.7599 257 L 11.464 257 C 5.5864 257 2 253.3627 2 247.4007 L 2 11.5993 Z" stroke="#cacad0" stroke-width="1" fill="#ffffff"/>
		</g>
		<path id="Line" opacity="0.502" d="M 2.5004 21.5 L 292.7247 21.5 " stroke="#b9b9c8" stroke-width="1" fill="none"/>
		<path id="Ellipse" d="M 25.0178 11 C 25.0178 9.3431 26.362 8 28.0201 8 C 29.6783 8 31.0224 9.3431 31.0224 11 C 31.0224 12.6569 29.6783 14 28.0201 14 C 26.362 14 25.0178 12.6569 25.0178 11 Z" fill="#dae0e6"/>
		<path id="Ellipse2" d="M 35.0255 11 C 35.0255 9.3431 36.3697 8 38.0278 8 C 39.686 8 41.0302 9.3431 41.0302 11 C 41.0302 12.6569 39.686 14 38.0278 14 C 36.3697 14 35.0255 12.6569 35.0255 11 Z" fill="#dae0e6"/>
		<path id="Ellipse3" d="M 45.0333 11 C 45.0333 9.3431 46.3774 8 48.0356 8 C 49.6937 8 51.0379 9.3431 51.0379 11 C 51.0379 12.6569 49.6937 14 48.0356 14 C 46.3774 14 45.0333 12.6569 45.0333 11 Z" fill="#dae0e6"/>
		<g>
			<path d="M 227.0194 56.5 C 227.0194 55.6203 228.4951 55 230.5878 55 L 255.6304 55 C 257.7231 55 259.1987 55.6203 259.1987 56.5 L 259.1987 56.5 C 259.1987 57.3284 257.7231 58 255.6304 58 L 230.5878 58 C 228.4951 58 227.0194 57.3284 227.0194 56.5 L 227.0194 56.5 Z" fill="#c8d2dd"/>
		</g>
		<g>
			<path d="M 227.0193 152.5 C 227.0193 151.0338 228.474 150 230.5369 150 L 255.2217 150 C 257.2845 150 258.7391 151.0338 258.7391 152.5 L 258.7391 152.5 C 258.7391 153.8807 257.2845 155 255.2217 155 L 230.5369 155 C 228.474 155 227.0193 153.8807 227.0193 152.5 L 227.0193 152.5 Z" fill="#a7b7c9"/>
		</g>
		<g opacity="0.749">
			<path d="M 33.024 89.5 C 33.024 88.4184 33.5255 88 34.8217 88 L 257.401 88 C 258.6971 88 259.1987 88.4184 259.1987 89.5 L 259.1987 89.5 C 259.1987 90.3284 258.6971 91 257.401 91 L 34.8217 91 C 33.5255 91 33.024 90.3284 33.024 89.5 L 33.024 89.5 Z" fill="#c8d2dd"/>
		</g>
		<g opacity="0.749">
			<path d="M 33.024 99.5 C 33.024 98.4184 33.5255 98 34.8217 98 L 257.401 98 C 258.6971 98 259.1987 98.4184 259.1987 99.5 L 259.1987 99.5 C 259.1987 100.3284 258.6971 101 257.401 101 L 34.8217 101 C 33.5255 101 33.024 100.3284 33.024 99.5 L 33.024 99.5 Z" fill="#c8d2dd"/>
		</g>
		<g opacity="0.749">
			<path d="M 33.024 109.5 C 33.024 108.4184 33.5255 108 34.8217 108 L 257.401 108 C 258.6971 108 259.1987 108.4184 259.1987 109.5 L 259.1987 109.5 C 259.1987 110.3284 258.6971 111 257.401 111 L 34.8217 111 C 33.5255 111 33.024 110.3284 33.024 109.5 L 33.024 109.5 Z" fill="#c8d2dd"/>
		</g>
		<g opacity="0.749">
			<path d="M 124.965 119.5 C 124.965 118.4184 125.2626 118 126.0319 118 L 258.1318 118 C 258.9012 118 259.1987 118.4184 259.1987 119.5 L 259.1987 119.5 C 259.1987 120.3284 258.9012 121 258.1318 121 L 126.0319 121 C 125.2626 121 124.965 120.3284 124.965 119.5 L 124.965 119.5 Z" fill="#c8d2dd"/>
		</g>
		<g opacity="0.749">
			<path d="M 33.024 196.5 C 33.024 195.4184 33.5255 195 34.8217 195 L 257.401 195 C 258.6971 195 259.1987 195.4184 259.1987 196.5 L 259.1987 196.5 C 259.1987 197.3284 258.6971 198 257.401 198 L 34.8217 198 C 33.5255 198 33.024 197.3284 33.024 196.5 L 33.024 196.5 Z" fill="#c8d2dd"/>
		</g>
		<g opacity="0.749">
			<path d="M 33.024 206.5 C 33.024 205.4184 33.5255 205 34.8217 205 L 257.401 205 C 258.6971 205 259.1987 205.4184 259.1987 206.5 L 259.1987 206.5 C 259.1987 207.3284 258.6971 208 257.401 208 L 34.8217 208 C 33.5255 208 33.024 207.3284 33.024 206.5 L 33.024 206.5 Z" fill="#c8d2dd"/>
		</g>
		<g opacity="0.749">
			<path d="M 124.965 216.5 C 124.965 215.4184 125.2626 215 126.0319 215 L 258.1318 215 C 258.9012 215 259.1987 215.4184 259.1987 216.5 L 259.1987 216.5 C 259.1987 217.3284 258.9012 218 258.1318 218 L 126.0319 218 C 125.2626 218 124.965 217.3284 124.965 216.5 L 124.965 216.5 Z" fill="#c8d2dd"/>
		</g>
		<g opacity="0.749">
			<path d="M 33.024 166.5 C 33.024 165.4184 33.5255 165 34.8217 165 L 257.401 165 C 258.6971 165 259.1987 165.4184 259.1987 166.5 L 259.1987 166.5 C 259.1987 167.3284 258.6971 168 257.401 168 L 34.8217 168 C 33.5255 168 33.024 167.3284 33.024 166.5 L 33.024 166.5 Z" fill="#c8d2dd"/>
		</g>
		<g opacity="0.749">
			<path d="M 124.965 176.5 C 124.965 175.4184 125.2626 175 126.0319 175 L 258.1318 175 C 258.9012 175 259.1987 175.4184 259.1987 176.5 L 259.1987 176.5 C 259.1987 177.3284 258.9012 178 258.1318 178 L 126.0319 178 C 125.2626 178 124.965 177.3284 124.965 176.5 L 124.965 176.5 Z" fill="#c8d2dd"/>
		</g>
		<g>
			<path d="M 165.4189 70 C 165.4189 67.2385 168.4557 65 172.2017 65 L 252.416 65 C 256.162 65 259.1987 67.2385 259.1987 70 L 259.1987 70 C 259.1987 72.7615 256.162 75 252.416 75 L 172.2017 75 C 168.4557 75 165.4189 72.7615 165.4189 70 L 165.4189 70 Z" fill="#8eb2fa"/>
		</g>
	</g>
</svg>