<?xml version="1.0" standalone="no"?>
<!-- Generator: Adobe Fireworks 10, Export SVG Extension by Aaron Beall (http://fireworks.abeall.com) . Version: 0.6.1  -->
<!DOCTYPE svg PUBLIC "-//W3C//DTD SVG 1.1//EN" "http://www.w3.org/Graphics/SVG/1.1/DTD/svg11.dtd">
<svg id="Untitled-Page%201" viewBox="0 0 292 257" style="background-color:#ffffff00" version="1.1"
	xmlns="http://www.w3.org/2000/svg" xmlns:xlink="http://www.w3.org/1999/xlink" xml:space="preserve"
	x="0px" y="0px" width="292px" height="257px"
>
	<defs>
		<filter id="filter1" x="-100%" y="-100%" width="300%" height="300%">
			<!-- Drop Shadow -->
			<feOffset result="out" in="SourceGraphic" dx="0" dy="5"/>
			<feColorMatrix result="out" in="out" type="matrix" values="0 0 0 0.6 0  0 0 0 0.6 0  0 0 0 0.6 0  0 0 0 0.251 0"/>
			<feGaussianBlur result="out" in="out" stdDeviation="15"/>
			<feBlend in="SourceGraphic" in2="out" mode="normal" result="Drop_Shadow1"/>
		</filter>
	</defs>
	<g id="Layer%201">
		<g>
			<path d="M 1.2753 10.5993 C 1.2753 4.6375 4.8617 1 10.7393 1 L 282.0353 1 C 287.9128 1 291.4996 4.6375 291.4996 10.5993 L 291.4996 246.4007 C 291.4996 252.3627 287.9128 256 282.0353 256 L 10.7393 256 C 4.8617 256 1.2753 252.3627 1.2753 246.4007 L 1.2753 10.5993 Z" stroke="#cacad0" stroke-width="1" fill="#ffffff"/>
		</g>
		<g>
			<path d="M 1.2753 21 L 1.2753 21 L 291.4996 21 L 291.4996 21 L 291.4996 131 L 291.4996 131 L 1.2753 131 L 1.2753 131 L 1.2753 21 Z" fill="#a7b7c9"/>
		</g>
		<g filter="url(#filter1)">
			<path d="M 46.3102 90.5369 C 46.3102 86.39 47.4967 85 51.036 85 L 241.7384 85 C 245.2776 85 246.4648 86.39 246.4648 90.5369 L 246.4648 229.4633 C 246.4648 233.6101 245.2776 235 241.7384 235 L 51.036 235 C 47.4967 235 46.3102 233.6101 46.3102 229.4633 L 46.3102 90.5369 Z" fill="#ffffff"/>
		</g>
		<path id="mountain-range" d="M 151.1639 39 L 143.0394 49.8333 L 149.2396 58.0667 L 145.8188 60.6667 C 142.1842 55.9 136.1978 47.6667 136.1978 47.6667 L 123.3697 65 L 170.4061 65 L 151.1639 39 L 151.1639 39 Z" fill="#ffffff"/>
		<path id="Line" opacity="0.502" d="M 0.7757 20.5 L 291 20.5 " stroke="#b9b9c8" stroke-width="1" fill="none"/>
		<path id="Ellipse" d="M 24.2931 10 C 24.2931 8.3431 25.6373 7 27.2954 7 C 28.9536 7 30.2978 8.3431 30.2978 10 C 30.2978 11.6569 28.9536 13 27.2954 13 C 25.6373 13 24.2931 11.6569 24.2931 10 Z" fill="#dae0e6"/>
		<path id="Ellipse2" d="M 34.3009 10 C 34.3009 8.3431 35.6451 7 37.3032 7 C 38.9613 7 40.3055 8.3431 40.3055 10 C 40.3055 11.6569 38.9613 13 37.3032 13 C 35.6451 13 34.3009 11.6569 34.3009 10 Z" fill="#dae0e6"/>
		<path id="Ellipse3" d="M 44.3086 10 C 44.3086 8.3431 45.6528 7 47.3109 7 C 48.9691 7 50.3132 8.3431 50.3132 10 C 50.3132 11.6569 48.9691 13 47.3109 13 C 45.6528 13 44.3086 11.6569 44.3086 10 Z" fill="#dae0e6"/>
		<g>
			<path d="M 99.4781 116 C 99.4781 113.2385 102.5213 111 106.2753 111 L 186.6586 111 C 190.4125 111 193.4556 113.2385 193.4556 116 L 193.4556 116 C 193.4556 118.7615 190.4125 121 186.6586 121 L 106.2753 121 C 102.5213 121 99.4781 118.7615 99.4781 116 L 99.4781 116 Z" fill="#8eb2fa"/>
		</g>
		<g opacity="0.749">
			<path d="M 89.3434 141.5 C 89.3434 140.4184 89.6008 140 90.2661 140 L 204.5103 140 C 205.1757 140 205.4331 140.4184 205.4331 141.5 L 205.4331 141.5 C 205.4331 142.3284 205.1757 143 204.5103 143 L 90.2661 143 C 89.6008 143 89.3434 142.3284 89.3434 141.5 L 89.3434 141.5 Z" fill="#c8d2dd"/>
		</g>
		<g opacity="0.749">
			<path d="M 89.3434 151.5 C 89.3434 150.4184 89.6008 150 90.2661 150 L 204.5103 150 C 205.1757 150 205.4331 150.4184 205.4331 151.5 L 205.4331 151.5 C 205.4331 152.3284 205.1757 153 204.5103 153 L 90.2661 153 C 89.6008 153 89.3434 152.3284 89.3434 151.5 L 89.3434 151.5 Z" fill="#c8d2dd"/>
		</g>
		<g opacity="0.749">
			<path d="M 89.3434 161.5 C 89.3434 160.4184 89.6008 160 90.2661 160 L 204.5103 160 C 205.1757 160 205.4331 160.4184 205.4331 161.5 L 205.4331 161.5 C 205.4331 162.3284 205.1757 163 204.5103 163 L 90.2661 163 C 89.6008 163 89.3434 162.3284 89.3434 161.5 L 89.3434 161.5 Z" fill="#c8d2dd"/>
		</g>
		<g opacity="0.749">
			<path d="M 89.3434 171.5 C 89.3434 170.4184 89.6008 170 90.2661 170 L 204.5103 170 C 205.1757 170 205.4331 170.4184 205.4331 171.5 L 205.4331 171.5 C 205.4331 172.3284 205.1757 173 204.5103 173 L 90.2661 173 C 89.6008 173 89.3434 172.3284 89.3434 171.5 L 89.3434 171.5 Z" fill="#c8d2dd"/>
		</g>
		<g opacity="0.749">
			<path d="M 107.6315 181.5 C 107.6315 180.4184 107.8078 180 108.2635 180 L 186.513 180 C 186.9686 180 187.145 180.4184 187.145 181.5 L 187.145 181.5 C 187.145 182.3284 186.9686 183 186.513 183 L 108.2635 183 C 107.8078 183 107.6315 182.3284 107.6315 181.5 L 107.6315 181.5 Z" fill="#c8d2dd"/>
		</g>
		<g opacity="0.749">
			<path d="M 89.3434 201.5 C 89.3434 200.4184 89.6008 200 90.2661 200 L 204.5103 200 C 205.1757 200 205.4331 200.4184 205.4331 201.5 L 205.4331 201.5 C 205.4331 202.3284 205.1757 203 204.5103 203 L 90.2661 203 C 89.6008 203 89.3434 202.3284 89.3434 201.5 L 89.3434 201.5 Z" fill="#c8d2dd"/>
		</g>
		<g opacity="0.749">
			<path d="M 107.6315 211.5 C 107.6315 210.4184 107.8078 210 108.2635 210 L 186.513 210 C 186.9686 210 187.145 210.4184 187.145 211.5 L 187.145 211.5 C 187.145 212.3284 186.9686 213 186.513 213 L 108.2635 213 C 107.8078 213 107.6315 212.3284 107.6315 211.5 L 107.6315 211.5 Z" fill="#c8d2dd"/>
		</g>
	</g>
</svg>